<svg xmlns="http://www.w3.org/2000/svg" viewBox="0 0 202 140">
  <title>consumables_block</title>
  <g id="Layer_2" data-name="Layer 2">
    <g id="Layer_2-2" data-name="Layer 2" style="opacity: 0.2">
      <rect x="1" y="1" width="200" height="138" style="fill: #fcfcfc;stroke: #fff;stroke-miterlimit: 10;stroke-width: 2px;opacity: 0.2"/>
    </g>
    <g id="Layer_4" data-name="Layer 4">
      <path d="M48.5,113.5l6-47,21-28-1-1,11.94,2.77L117.5,67.5l-10,5,27,47,3.17,4.44a1.62,1.62,0,0,1-1.32,2.56H128.5v-3.13a1.16,1.16,0,0,0-1.67-1l-6.33,3.16-69-2h1L33,73l21.5-6.5-10-3-2,2,65,7-31,50,10-22-32-34L34.32,72.26a.17.17,0,0,1-.16-.3L75.5,38.5l9,3,37-18,30,14,9,39,8.13,3.61a.72.72,0,0,1,.26,1.12L135.5,121.5l3.23,4a.28.28,0,0,1-.34.43L95.5,105.5l12-33,10-5,7,4-9,14-20,20-16,18,61.78-11.58a1.41,1.41,0,0,0,.87-2.23l-4.64-6.19-11,2,11-2,23-27,8.15,3.62a.43.43,0,0,0,.59-.51L155.5,32.5,113.4,13.9a.21.21,0,0,0-.24.33l8.34,9.27-9-10-42,21-2,10" style="fill: none;stroke: #fff;stroke-miterlimit: 10;stroke-width: 3px"/>
    </g>
  </g>
</svg>
