<svg xmlns="http://www.w3.org/2000/svg" viewBox="0 0 202 140">
  <title>fusion_rifle_block</title>
  <g id="Layer_2" data-name="Layer 2">
    <g id="Layer_2-2" data-name="Layer 2" style="opacity: 0.2">
      <rect x="1" y="1" width="200" height="138" style="fill: #fcfcfc;stroke: #fff;stroke-miterlimit: 10;stroke-width: 2px;opacity: 0.2"/>
    </g>
    <g id="Layer_6" data-name="Layer 6">
      <path d="M95.08,44.69l.34,1.38c1.52,0,2.94,0,4.36,0,1.88,0,3.76-.14,5.64-.21.87,0,1.74-.12,2.61-.08,2.59.1,5.17.36,7.76.35s5.11-.33,7.67-.35,5.15.25,7.72.25,5.07-.2,7.6-.27c1.71,0,3.41,0,5.12,0,2,0,4,0,6,0,.34,0,.9.05,1,.24.67,1.55,2.07,1.13,3.17,1.09,1.9-.08,2.44.86,2.43,2.53l-3.44.88.12.76,6.47-.32c-.06.15-.07.21-.1.23s-.12,0-.17.06-.22.18-.23.65c1.73-.15,3.46-.39,5.2-.42.69,0,1.38.51,2.1.64a16.69,16.69,0,0,0,2.26.12l-.11-.34c1.91.16,4,.31,6.08.51,1.49.14,1.36,1.32,1.41,2.33s-.28,2-1.54,2a25.91,25.91,0,0,0-3.44.1,3.53,3.53,0,0,0-1.92,1.31,1.81,1.81,0,0,0,.19,1.66c.19.27,1,.16,1.5.12,2.37-.19,4.74-.49,7.11-.55a2.06,2.06,0,0,1,1.5,1.29,8.77,8.77,0,0,1,0,3.58,2.17,2.17,0,0,1-1.66,1.28c-2.42-.15-5,.86-7.29-.61-.33-.21-1,.14-1.52.19q-1.86.19-3.72.33c-.42,0-1.17-.1-1.22,0-.55,1.53-1.82,1.18-2.91,1.16s-1.72.11-2,1.3a1.81,1.81,0,0,1-1.3,1c-1.45.23-3.09-.36-4.17,1.26-.17.25-.91.11-1.6.17-.1,1.05-.22,2.11-.31,3.17-.19,2.21-1.27,3.25-3.53,3.18s-4.74.58-6.79-1.15c-.3-.25-.94-.14-1.41-.13-7,.08-13.94.13-20.91.29a5.34,5.34,0,0,0-2.66.92c-3.33,2.21-6.53,4.63-9.91,6.77a8,8,0,0,0-4.05,7.75c.15,3.13,0,3.17-3.09,3.18H93v.49c2.8,0,5.61.08,8.41,0,1,0,1.57.16,1.93,1.12.52,1.42,1.25,2.77,1.69,4.21.62,2-.12,3.1-2.21,3.15-4.06.09-8.13.09-12.19.05a2.11,2.11,0,0,1-1.54-.71c-.84-1.25-2-1.36-3.32-1.34-6.49.08-13,0-19.46.18-4,.12-8,.69-12,.93-3.63.22-5.41-2.22-4.33-5.78a19.73,19.73,0,0,1,.79-1.83c.14-.32.43-.86.32-1-1.51-1.54-.2-3,.18-4.38.86-3.15,1.89-6.27,3-9.36.51-1.47,1.49-2.79,1.87-4.28a12.49,12.49,0,0,0,.34-4.55c-.38-3.12-5.17-5.15-8-3.33a97.88,97.88,0,0,0-9.29,6.69c-.94.78-1.16,2.51-1.56,3.84a30.91,30.91,0,0,1-.9,3.79,3.2,3.2,0,0,1-3.15,2,13.34,13.34,0,0,0-3.11.71c-2.4.56-4.41-.12-4.44-3.1,0-4.85,0-9.71-.36-14.54-.25-3.6-1.11-7.16-1.51-10.76a14.43,14.43,0,0,1,.33-4.32c.32-1.64,1.64-2.08,3.15-1.32a3.55,3.55,0,0,0,1.54.35c7.4,0,14.8.13,22.19-.18,2-.08,4.22.44,6.27-1,1-.69,2.84-.08,4.27-.25,2.44-.3,4.87-.73,7.29-1.15,1.42-.24,2.83-.55,4.35-.86L74,45.89c1.42.15,3,.83,3.89.29a8.8,8.8,0,0,0,3.56-4c1.16-3.16.91-3.13,4.29-3.22a2.82,2.82,0,0,1,3.15,2C90.12,43.86,90.21,43.82,95.08,44.69ZM87.57,88.05c-2.34.17-3.46-1.08-3.68-3.29H81.83v-5.4H84c.06-1.69-.93-2.18-2.24-2.21-2.42-.05-4.85.08-7.26-.06-2-.12-4-.55-6-.75a2.17,2.17,0,0,0-1.61.41,10.51,10.51,0,0,0-2.1,3c-.89,2.24-1.54,4.58-2.25,6.89-.79,2.57,0,3.76,2.67,3.76,6.65,0,13.31-.12,20-.21A2.22,2.22,0,0,0,87.57,88.05ZM83.28,75.36c-.62-1.86-1.05-3.3-1.61-4.68A1.46,1.46,0,0,0,80.61,70c-2-.11-4.11-.19-6.16-.15a2.81,2.81,0,0,0-2.3,3c.11,1.12.31,2.47,1.81,2.51C76.91,75.43,79.86,75.36,83.28,75.36ZM136.2,51.22l0-.65H96.78v.82Q116.48,51.87,136.2,51.22ZM51.77,61.83c-3.84,0-7.59,0-11.34,0-.57,0-1.13.55-1.69.85.58.32,1.16.9,1.75.91,3.39.07,6.79,0,10.19,0C51.92,63.65,52.16,63.09,51.77,61.83ZM66.85,50.78l0,.65c2.55-.18,5.1-.28,7.64-.55s5.09-.73,7.64-1c.44-.05.93.46,1.41.49a10.11,10.11,0,0,0,1.91-.21l-.13-.9C79.19,49.7,72.87,48.14,66.85,50.78ZM51,53l0-.28H29.47V53Zm88.14-.87v.2h18.65v-.2ZM92,49.92V49.3H87.5V50A10.88,10.88,0,0,0,92,49.92Zm15.47,3.52.08-.77h-4.75l-.05.55ZM68.77,72.23c.14,2.23.7,2.81,2.71,2.85C70.45,74.22,71.25,71.88,68.77,72.23ZM83,62.31v.26h6v-.26Zm54.25-9.42v-.37H133v.37Zm26,4.94-.4.49L164.63,60l.48-.39V57.83ZM46.39,64.48v-.16H38.91v.16Z" style="fill: #fff"/>
    </g>
  </g>
</svg>
