<svg xmlns="http://www.w3.org/2000/svg" viewBox="0 0 202 140">
  <title>hand_cannon_block_1</title>
  <g id="Layer_2" data-name="Layer 2">
    <g id="Layer_2-2" data-name="Layer 2" style="opacity: 0.2">
      <rect x="1" y="1" width="200" height="138" style="fill: #fcfcfc;stroke: #fff;stroke-miterlimit: 10;stroke-width: 2px;opacity: 0.2"/>
    </g>
    <g id="Layer_4" data-name="Layer 4">
      <g id="sPnphH.tif">
        <g>
          <path d="M97.46,36.51c2.66,1.41,5.23,2.71,8.47,2.69,20-.12,40-.07,59.94-.06.84,0,1.69.08,2.62.13a6.51,6.51,0,0,1-1.68,4.86c.18,1.11.43,2.28.55,3.46a12.07,12.07,0,0,1,0,1.51c0,1,.06,2,0,3a53,53,0,0,0,.79,7.3,8.7,8.7,0,0,1-1,5,1.84,1.84,0,0,1-1.86,1.19c-.43,0-.87,0-1.3,0l-46.9.11a5.89,5.89,0,0,0-3.16.53,4.11,4.11,0,0,1-1.9.23c-2.24,0-4.48,0-6.81,0a8.94,8.94,0,0,1-.41,1.23,2.28,2.28,0,0,1-2.22,1.42c-1.74,0-3.48.06-5.21,0a8,8,0,0,0-5.1,1.28,10,10,0,0,0-.54,2.5,11.32,11.32,0,0,1-5.41,8.61l-.36.21a23.93,23.93,0,0,1-7.32,2.57,17.33,17.33,0,0,1-7.31.07,9.09,9.09,0,0,1-5-3.22,9.29,9.29,0,0,1-.81-1.31c-2.91-1.13-4.45,1-6,2.73a8.68,8.68,0,0,0-2.21,4.64,5.53,5.53,0,0,1-1,2.38,10.22,10.22,0,0,0-1.7,7.79,16.37,16.37,0,0,1-.43,5.35c-.12.67-.9,1.23-1.44,1.92.52.5,1.07,1,1.55,1.49.86,1,.74,1.86-.42,2.45a3.14,3.14,0,0,1-1.84.41c-5.67-1.08-11.35-2.15-17-3.43-2.42-.55-2.6-1-2.48-3.57.1-2.09.31-4.18.54-6.26A3,3,0,0,1,33.87,94a3.65,3.65,0,0,0,1-2.77,73.28,73.28,0,0,1,3.11-15.7,8.15,8.15,0,0,1,1.88-2.85,44.92,44.92,0,0,0,6.51-9.17A10.24,10.24,0,0,0,47.59,56a6.83,6.83,0,0,1-.09-1.23c1-1.92,2.69-3.24,3.47-5.23a3,3,0,0,1,2.83-1.71,26.25,26.25,0,0,1,3,.19,6.19,6.19,0,0,0,1-.8,2.88,2.88,0,0,0-1.21-4.86,17.07,17.07,0,0,0-2.31-.53c-.33-.08-.64-.21-1.35-.44.63-.44,1-.85,1.34-.9a7.1,7.1,0,0,1,5.34,1.3L61.21,43c1-.42,1.76-.71,2.51-1.11a2.75,2.75,0,0,0,1.53-2.65c0-1-.08-2.06.92-2.73ZM75.39,82m-.87.55a27.47,27.47,0,0,0,3.2,0,22,22,0,0,0,8.39-3.88c2.57-1.88,3.57-4.37,2.13-7.26a7.14,7.14,0,0,0-2.08-.88c-3.16-.29-6.34-.43-9.51-.63a3.22,3.22,0,0,0-2.13.65c-2.51,1.34-2,7.09,0,10.4m41.23-40.8c1,2.25,1.52,2,3.45,2q7.36,0,14.72,0c2,0,2.4.33,3.32-2C130.05,40.16,123,40.12,115.74,40.16ZM74.52,81c-3.33-3.12-3.62-6.73-3.55-10.69-3.31.64-4.82,5.33-4.27,7.87a1.62,1.62,0,0,0,.16.4c1,1.89,5.26,4,7.66,4M155.7,45.42a1.82,1.82,0,0,0-2-1.43c-1.59,0-3.17,0-4.76,0a1.72,1.72,0,0,0-2,1.59,2.42,2.42,0,0,0,2.32,1.28c1.44,0,2.88,0,4.32,0A2,2,0,0,0,155.7,45.42Zm-38.63,0a1.79,1.79,0,0,0-2-1.45c-1.36,0-2.73,0-4.09,0a1.71,1.71,0,0,0-1.83,1.44,2,2,0,0,0,2.17,1.44c1.22,0,2.44,0,3.66,0A2,2,0,0,0,117.07,45.42Zm25.16-.06A1.78,1.78,0,0,0,140.39,44c-1.36,0-2.72,0-4.09,0a1.71,1.71,0,0,0-1.94,1.51,2.16,2.16,0,0,0,2.26,1.39c1.15,0,2.29,0,3.44,0A2,2,0,0,0,142.23,45.36ZM71,63.67v.18h2.15c6.06,0,12.13,0,18.19,0,1.35,0,2.69.29,4,.41a9.18,9.18,0,0,0,1.44-.11c-.17-.27-.24-.49-.31-.49Q83.77,63.66,71,63.67ZM96.84,51.13l.59,0V43.3l-1.48-.85C97.19,45.52,96,48.44,96.84,51.13Z" style="fill: #fff"/>
          <path d="M53.36,41.29" style="fill: #fff"/>
        </g>
      </g>
      <path d="M127.81,46.86a2,2,0,0,0,2.06-1.43" style="fill: #fff"/>
      <path d="M124.15,46.87c1.22,0,2.44,0,3.66,0" style="fill: #fff"/>
      <path d="M122,45.43a2,2,0,0,0,2.17,1.44" style="fill: #fff"/>
      <path d="M123.82,44A1.71,1.71,0,0,0,122,45.43" style="fill: #fff"/>
      <path d="M127.91,44c-1.36,0-2.73,0-4.09,0" style="fill: #fff"/>
      <path d="M129.87,45.42a1.79,1.79,0,0,0-2-1.45" style="fill: #fff"/>
    </g>
  </g>
</svg>
