<svg xmlns="http://www.w3.org/2000/svg" xmlns:xlink="http://www.w3.org/1999/xlink" viewBox="0 0 202 140">
  <defs>
    <clipPath id="clip-path">
      <polygon points="41.28 93.6 80.56 22.75 158.39 39.82 123.05 123.63 41.28 93.6" style="fill: none"/>
    </clipPath>
    <clipPath id="clip-path-2">
      <polygon points="86.77 74.62 96.18 56.09 115.7 61.34 106.53 80.66 86.77 74.62" style="fill: none"/>
    </clipPath>
    <clipPath id="clip-path-3">
      <polygon points="77.03 79.09 92.94 48.4 125.59 56.8 110.35 89.7 77.03 79.09" style="fill: none"/>
    </clipPath>
    <clipPath id="clip-path-4">
      <polygon points="69.44 82.58 90.5 42.6 133.33 53.24 113.43 97.05 69.44 82.58" style="fill: none"/>
    </clipPath>
    <clipPath id="clip-path-5">
      <polygon points="59.32 86.88 86.81 35.66 142.18 48.83 116.65 106.5 59.32 86.88" style="fill: none"/>
    </clipPath>
    <clipPath id="clip-path-6">
      <polygon points="50.23 90.6 83.36 29.84 149.54 44.98 119.23 115.03 50.23 90.6" style="fill: none"/>
    </clipPath>
  </defs>
  <title>horn_block</title>
  <g id="Layer_2" data-name="Layer 2">
    <g id="Layer_2-2" data-name="Layer 2" style="opacity: 0.2">
      <rect x="1" y="1" width="200" height="138" style="fill: #fcfcfc;stroke: #fff;stroke-miterlimit: 10;stroke-width: 2px;opacity: 0.2"/>
    </g>
    <g id="Layer_4" data-name="Layer 4">
      <path d="M104,19.2h14c12.82,1.72,23.23,7.41,30.94,18.06,1.68,2.32,4.45,4.65,7.11,5.28,4.51,1.07,5.2,4,5.74,7.58,3.08,20.57-2.94,38.63-15.28,54.88-1.19,1.57-3.41,3.76-4.79,3.52-5-.85-7.9,5.69-13.12,3.27-.46-.21-1.59.79-2.31,1.37-8.45,6.78-18.35,9.85-28.86,11.3-18.09,2.49-34.82-6.08-43.77-22.28-.77-1.39-1.55-3.1-2.81-3.85C43.59,94,42,87.24,43.64,79.76c1.69-7.91,3.47-16,6.56-23.39,4.12-9.91,9.81-19,21.35-22.09A6.4,6.4,0,0,0,74,33.08C82.72,25.62,93,21.69,104,19.2Z" style="fill: #fff"/>
      <g style="isolation: isolate">
        <g style="clip-path: url(#clip-path)">
          <g>
            <path d="M116.83,31.13a45.78,45.78,0,0,0-15.9-.59A52.61,52.61,0,0,0,85.73,35a53.94,53.94,0,0,0-13.29,8.79,49.07,49.07,0,0,0-10.1,12.62A41.13,41.13,0,0,0,57.4,71.18a34.5,34.5,0,0,0,1.18,14.48,32,32,0,0,0,7.35,12.64,35.09,35.09,0,0,0,13.57,8.79,43.42,43.42,0,0,0,17.68,2.45,51.91,51.91,0,0,0,18-4.54,53.74,53.74,0,0,0,15.57-10.62,47.43,47.43,0,0,0,10.51-15.29,38.34,38.34,0,0,0,3.14-16.59,32.43,32.43,0,0,0-13.6-25.23,37.68,37.68,0,0,0-14-6.13" style="fill: #f2f2f2"/>
            <path d="M79.5,107.08a35.09,35.09,0,0,1-13.57-8.79,32,32,0,0,1-7.35-12.64A34.5,34.5,0,0,1,57.4,71.18a41.13,41.13,0,0,1,4.93-14.75,49.07,49.07,0,0,1,10.1-12.62A53.94,53.94,0,0,1,85.73,35a52.61,52.61,0,0,1,15.2-4.49,45.78,45.78,0,0,1,15.9.59,37.68,37.68,0,0,1,14,6.13,32.43,32.43,0,0,1,13.6,25.23,38.34,38.34,0,0,1-3.14,16.59,47.43,47.43,0,0,1-10.51,15.29A53.74,53.74,0,0,1,115.2,105a51.91,51.91,0,0,1-18,4.54,43.42,43.42,0,0,1-17.68-2.45M117,30.75a46.29,46.29,0,0,0-16.07-.59,53.22,53.22,0,0,0-15.35,4.54,54.57,54.57,0,0,0-13.43,8.87A49.61,49.61,0,0,0,62,56.32a41.59,41.59,0,0,0-5,14.9,34.92,34.92,0,0,0,1.18,14.64,32.38,32.38,0,0,0,7.42,12.79,35.45,35.45,0,0,0,13.72,8.9A43.87,43.87,0,0,0,97.16,110a52.51,52.51,0,0,0,18.23-4.59,54.37,54.37,0,0,0,15.76-10.76,47.93,47.93,0,0,0,10.63-15.48,38.74,38.74,0,0,0,3.16-16.78,32.81,32.81,0,0,0-13.78-25.5A38.1,38.1,0,0,0,117,30.75" style="fill: #939393"/>
          </g>
        </g>
      </g>
      <g style="opacity: 0.74">
        <g style="isolation: isolate">
          <g style="clip-path: url(#clip-path-2)">
            <g>
              <path d="M105.58,59.08a10.68,10.68,0,0,0-3.94-.28,12.49,12.49,0,0,0-3.86,1.08,12.85,12.85,0,0,0-3.36,2.24A11.55,11.55,0,0,0,92,65.35a9.51,9.51,0,0,0-1,3.68,8,8,0,0,0,.52,3.45,7.59,7.59,0,0,0,2,2.84,8.53,8.53,0,0,0,3.28,1.83,10.56,10.56,0,0,0,4,.39,12.44,12.44,0,0,0,4-1.08,12.83,12.83,0,0,0,3.49-2.35,11.47,11.47,0,0,0,2.48-3.38,9.36,9.36,0,0,0,.94-3.78A7.87,7.87,0,0,0,111,63.5a7.62,7.62,0,0,0-2.09-2.74,8.69,8.69,0,0,0-3.31-1.68" style="fill: #626262"/>
              <path d="M96.7,77.15a8.53,8.53,0,0,1-3.28-1.83,7.59,7.59,0,0,1-2-2.84A8,8,0,0,1,90.93,69a9.51,9.51,0,0,1,1-3.68,11.55,11.55,0,0,1,2.45-3.23,12.85,12.85,0,0,1,3.36-2.24,12.49,12.49,0,0,1,3.86-1.08,10.68,10.68,0,0,1,3.94.28,8.69,8.69,0,0,1,3.31,1.68A7.62,7.62,0,0,1,111,63.5a7.87,7.87,0,0,1,.68,3.45,9.36,9.36,0,0,1-.94,3.78,11.47,11.47,0,0,1-2.48,3.38,12.83,12.83,0,0,1-3.49,2.35,12.44,12.44,0,0,1-4,1.08,10.56,10.56,0,0,1-4-.39m9.08-18.48a11.18,11.18,0,0,0-4.13-.29,13.09,13.09,0,0,0-4,1.13,13.47,13.47,0,0,0-3.51,2.35,12.08,12.08,0,0,0-2.57,3.37,10,10,0,0,0-1.09,3.84A8.36,8.36,0,0,0,91,72.68a8,8,0,0,0,2.05,3,8.92,8.92,0,0,0,3.44,1.92,11,11,0,0,0,4.24.41,13,13,0,0,0,4.21-1.14,13.46,13.46,0,0,0,3.66-2.46,12,12,0,0,0,2.59-3.54,9.77,9.77,0,0,0,1-4,8.25,8.25,0,0,0-.72-3.61,8,8,0,0,0-2.19-2.87,9.08,9.08,0,0,0-3.46-1.76" style="fill: #939393"/>
            </g>
          </g>
        </g>
      </g>
      <g style="isolation: isolate">
        <g style="clip-path: url(#clip-path-3)">
          <path d="M93.43,83.81a14.51,14.51,0,0,1-5.6-3.23,13,13,0,0,1-3.28-4.93,13.73,13.73,0,0,1-.8-5.9,16.37,16.37,0,0,1,1.83-6.22,19.81,19.81,0,0,1,4.18-5.43,22,22,0,0,1,5.67-3.78,21.4,21.4,0,0,1,6.5-1.85,18.36,18.36,0,0,1,6.69.43,15,15,0,0,1,5.67,2.79A13.1,13.1,0,0,1,118,60.3a13.44,13.44,0,0,1,1.26,5.9,15.9,15.9,0,0,1-1.54,6.53,19.54,19.54,0,0,1-4.25,5.88,22,22,0,0,1-6.05,4.08,21.28,21.28,0,0,1-7,1.86,18,18,0,0,1-7-.73m15.39-31.32a18.86,18.86,0,0,0-6.87-.44,22,22,0,0,0-6.67,1.89,22.59,22.59,0,0,0-5.82,3.88,20.35,20.35,0,0,0-4.29,5.58,16.82,16.82,0,0,0-1.89,6.39,14.1,14.1,0,0,0,.81,6.06,13.33,13.33,0,0,0,3.36,5.07,14.9,14.9,0,0,0,5.75,3.32,18.46,18.46,0,0,0,7.18.76,21.85,21.85,0,0,0,7.17-1.9,22.55,22.55,0,0,0,6.22-4.2,20.06,20.06,0,0,0,4.37-6,16.32,16.32,0,0,0,1.57-6.71,13.79,13.79,0,0,0-1.31-6.05,13.45,13.45,0,0,0-3.76-4.75,15.38,15.38,0,0,0-5.83-2.86" style="fill: #939393"/>
        </g>
      </g>
      <g style="isolation: isolate">
        <g style="clip-path: url(#clip-path-4)">
          <path d="M90.83,89.1a19.14,19.14,0,0,1-7.4-4.38,17.19,17.19,0,0,1-4.26-6.6,18.28,18.28,0,0,1-1-7.82,21.81,21.81,0,0,1,2.48-8.18A26.31,26.31,0,0,1,86.21,55a29.13,29.13,0,0,1,7.44-4.95,28.35,28.35,0,0,1,8.52-2.44,24.41,24.41,0,0,1,8.8.51,19.93,19.93,0,0,1,7.53,3.61,17.4,17.4,0,0,1,4.93,6.06,17.75,17.75,0,0,1,1.78,7.8,21,21,0,0,1-2,8.71,25.82,25.82,0,0,1-5.64,7.89,29.1,29.1,0,0,1-8.1,5.48,28.16,28.16,0,0,1-9.34,2.46,23.71,23.71,0,0,1-9.32-1m20.33-41.37a24.91,24.91,0,0,0-9-.51,29,29,0,0,0-8.69,2.49,29.76,29.76,0,0,0-7.58,5A26.83,26.83,0,0,0,80.28,62a22.26,22.26,0,0,0-2.54,8.34,18.65,18.65,0,0,0,1,8,17.56,17.56,0,0,0,4.34,6.74,19.54,19.54,0,0,0,7.55,4.48,24.2,24.2,0,0,0,9.52,1.07,28.72,28.72,0,0,0,9.54-2.51,29.67,29.67,0,0,0,8.27-5.6,26.35,26.35,0,0,0,5.76-8.06,21.4,21.4,0,0,0,2-8.9,18.12,18.12,0,0,0-1.82-8,17.76,17.76,0,0,0-5-6.18,20.33,20.33,0,0,0-7.68-3.68" style="fill: #939393"/>
        </g>
      </g>
      <g style="isolation: isolate">
        <g style="clip-path: url(#clip-path-5)">
          <path d="M86.79,95.75a24.86,24.86,0,0,1-9.62-5.88,22.44,22.44,0,0,1-5.42-8.71A24,24,0,0,1,70.65,71,28.61,28.61,0,0,1,74,60.41a34.37,34.37,0,0,1,7.16-9.13,38,38,0,0,1,9.57-6.35,37,37,0,0,1,11-3.17,32,32,0,0,1,11.37.57,26.15,26.15,0,0,1,9.82,4.56,22.78,22.78,0,0,1,6.54,7.8,23.1,23.1,0,0,1,2.49,10.16,27.2,27.2,0,0,1-2.44,11.47,33.56,33.56,0,0,1-7.37,10.45A37.9,37.9,0,0,1,111.39,94,36.64,36.64,0,0,1,99,97.24a30.76,30.76,0,0,1-12.25-1.48m26.44-53.81a32.48,32.48,0,0,0-11.55-.57,37.57,37.57,0,0,0-11.12,3.22A38.58,38.58,0,0,0,80.86,51a34.93,34.93,0,0,0-7.27,9.26A29.07,29.07,0,0,0,70.2,71a24.36,24.36,0,0,0,1.11,10.35,22.79,22.79,0,0,0,5.5,8.85,25.24,25.24,0,0,0,9.77,6A31.25,31.25,0,0,0,99,97.72a37.22,37.22,0,0,0,12.56-3.25,38.49,38.49,0,0,0,10.88-7.38,34.07,34.07,0,0,0,7.49-10.62,27.62,27.62,0,0,0,2.47-11.66,23.47,23.47,0,0,0-2.54-10.32,23.15,23.15,0,0,0-6.65-7.91,26.57,26.57,0,0,0-10-4.62" style="fill: #939393"/>
        </g>
      </g>
      <g style="isolation: isolate">
        <g style="clip-path: url(#clip-path-6)">
          <path d="M82.91,101.62a29.79,29.79,0,0,1-11.53-7.24A27,27,0,0,1,65,83.8a29,29,0,0,1-1.17-12.25A34.57,34.57,0,0,1,67.93,59a41.41,41.41,0,0,1,8.58-10.83A45.65,45.65,0,0,1,87.89,40.6a44.49,44.49,0,0,1,13-3.81,38.58,38.58,0,0,1,13.57.6,31.64,31.64,0,0,1,11.82,5.34A27.37,27.37,0,0,1,137.47,64.2a32.57,32.57,0,0,1-2.8,13.9,40.23,40.23,0,0,1-8.87,12.74,45.51,45.51,0,0,1-13,8.85,44,44,0,0,1-15,3.85,36.86,36.86,0,0,1-14.84-1.92M114.66,37a39.09,39.09,0,0,0-13.74-.6,45.08,45.08,0,0,0-13.18,3.86,46.25,46.25,0,0,0-11.52,7.63,42,42,0,0,0-8.69,11A35,35,0,0,0,63.4,71.6,29.39,29.39,0,0,0,64.56,84,27.38,27.38,0,0,0,71,94.73a30.16,30.16,0,0,0,11.67,7.35,37.32,37.32,0,0,0,15,2,44.56,44.56,0,0,0,15.24-3.9,46.11,46.11,0,0,0,13.19-9,40.76,40.76,0,0,0,9-12.92A33,33,0,0,0,138,64.14,27.74,27.74,0,0,0,126.64,42.4a32.06,32.06,0,0,0-12-5.4" style="fill: #939393"/>
        </g>
      </g>
    </g>
  </g>
</svg>
