<svg xmlns="http://www.w3.org/2000/svg" viewBox="0 0 202 140">
  <title>machine_gun_block</title>
  <g id="Layer_2" data-name="Layer 2">
    <g id="Layer_2-2" data-name="Layer 2" style="opacity: 0.2">
      <rect x="1" y="1" width="200" height="138" style="fill: #fcfcfc;stroke: #fff;stroke-miterlimit: 10;stroke-width: 2px;opacity: 0.2"/>
    </g>
    <g id="Layer_6" data-name="Layer 6">
      <g>
        <path d="M19.28,62.6V61.2c3.44-.25,9.72-.11,10.85.26.21-.62.76-.74,1.32-.88,1.5-.36,3-.75,4.48-1.1a32,32,0,0,1,5.18-1.11c3.25-.2,6.52-.11,9.78-.12a1.08,1.08,0,0,1,.37.15L52,59.51c.9-.68,1.75-1.37,2.83-1.16,1-1.16,1-1.16,2.18-1.44l1.06-1.69a2.62,2.62,0,0,1,2.63.61c2.18-.51,4.26-1,6.36-1.46a14.71,14.71,0,0,1,3.58-.49,19,19,0,0,0,4.69-.6c1.94-.4,3.84-1.07,5.89-.9l.35-1a1.32,1.32,0,0,0,1.66-.3l.27-1.21c.76-.63,2.06.06,2.18-1.16,1.91.12,3.47.66,3.71,2.78h3.46l.38,1c1.71,0,3.43,0,5.14,0,1.2,0,2.4.2,3.61.25a8.17,8.17,0,0,0,2.65,0c2.34-.71,4.72-.4,7.09-.47a1.62,1.62,0,0,1,.94.15,2.34,2.34,0,0,0,2.5.11,2.22,2.22,0,0,1,2.14.07,5.14,5.14,0,0,0,1.1.37l.49.86,1,.32c.83,1.5-.39,2.48-.67,3.59-1.45,1.22-3.26.36-5,.92.27.25.41.47.58.5a5.94,5.94,0,0,0,1.11.05q14,0,28,.08a6.55,6.55,0,0,0,3.75-.78,3.4,3.4,0,0,1,3.22-.14,4,4,0,0,0,1.71.41h17.07c1.83,0,2,.1,2.63,1.84a1.89,1.89,0,0,0,.26.32L174,61l-.17-1.44c1.78-.09,1.15,1.63,2,2.31a4.74,4.74,0,0,1,1.68.25,5.67,5.67,0,0,0,2.58.46c.64,0,1.27.19,1.91.29v2c-.43.5-1,.36-1.56.4a5.42,5.42,0,0,0-2.47.25V67c1.89.4,2.12.76,1.53,2.35l-4,.85-.61.83-4.2.35c-.37,1.33,1,1,1.23,1.69v1.54c-.48.09-1,0-1.27.26a3.27,3.27,0,0,1-2.25.5,10.22,10.22,0,0,1-4.11-.71c-1-.39-2.12-.72-3.16-1.12a7.22,7.22,0,0,0-2.73-.48c-3,0-6.07,0-9.1,0H132.15c-1.42,0-1.6.21-1.64,1.62,0,.83,0,1.66-.07,2.5a9.42,9.42,0,0,1-3.43.24,13.51,13.51,0,0,1-3.33-.21,19.44,19.44,0,0,1-3.21-1.47V78.6L119,80H102.83c-1.41-1.08-1.88-3.19-1.32-6l.87-.48-.51-1H98.49c.39,1.61,1.39,3,1.28,4.67a.9.9,0,0,0,.08.54,3.59,3.59,0,0,1,.38,2.57c-.12,1.86-.33,3.72-.43,5.58-.06,1.14-.83,2-1,3.12,0,.19-.28.36-.45.52-.52.47-1.05.92-1.56,1.4a2.44,2.44,0,0,1-1.77.68c-5.41,0-10.82.07-16.23.09-.37,0-.85,0-1.08-.16-1.21-1.06-3-1.65-3.08-3.68,0-.16-.16-.32-.22-.48a4.71,4.71,0,0,1-.49-1.25c-.17-1.71-.26-3.43-.38-5.15,0-.27-.06-.53-.1-.81a15.29,15.29,0,0,1-5.57.47,3.12,3.12,0,0,1-1.18-.4,2.3,2.3,0,0,0-2.13-.25l-4.43,7.88c.32,1.21,1.7,1.77,1.14,3-1.41.43-7.26.41-8.45-.06,0-1.15,0-2.36,0-3.56a3.39,3.39,0,0,1,.5-1.85c1.13-1.93,2.22-3.89,3.31-5.84a25,25,0,0,0,1.31-2.47,2.45,2.45,0,0,0-2.23-3.45c-.54,0-1.08-.06-1.61-.09l-.31-1.62-2.94-.26-.33-1.72a10.38,10.38,0,0,0-1.92-.37c-2.64,0-5.29-.1-7.84,0-1.86,3-3.21,6-5.15,8.75-1.83,0-3.6,0-5.37,0-.41,0-.94-.08-1.22.13a3,3,0,0,1-2,.42H21.28c-.46,0-.92,0-1.33-.06a4.1,4.1,0,0,1-.38-2.8,33,33,0,0,0,.51-6.4A26.94,26.94,0,0,0,19.28,62.6ZM140.12,60a93.85,93.85,0,0,1-10.61.13C131.55,61.84,138.41,62,140.12,60ZM68.72,79.7c.69,0,1.53,0,2.36,0a2.53,2.53,0,0,0,2.68-2.46,2.69,2.69,0,0,0-2.42-3,16.77,16.77,0,0,0-2,0C67.15,75.88,67.9,77.74,68.72,79.7ZM90.1,61,90,59.34a13.67,13.67,0,0,0-3.87.08,14.26,14.26,0,0,1-3.39.44,3.9,3.9,0,0,0-.76.32c1.24.2,2.25.06,2.94.88.12.15.54.06.81.06.84,0,1.68,0,2.51,0C88.79,61.11,89.38,61.05,90.1,61Zm37.76,13.35c0-.73-.4-1.31-1-1.31a1.47,1.47,0,0,0-1.31,1.4c0,.75.37,1.29,1,1.27A1.34,1.34,0,0,0,127.86,74.35Z" style="fill: #fff"/>
        <path d="M140.66,59.8c-.5-.44-1.11-.26-1.68-.27s-1.12.11-1.68.12c-1.87.06-3.73.12-5.6.14-.75,0-1.49-.08-2.24-.13a1.22,1.22,0,0,0-1.12.42" style="fill: #fff"/>
        <path d="M73.74,79.26c-1.68,1.22-3.61.78-5.46.82-.23,0-.47-.26-.7-.4" style="fill: #fff"/>
        <path d="M174.26,59.94a1.65,1.65,0,0,1,.27,2,6.42,6.42,0,0,1-.41.84" style="fill: #fff"/>
        <path d="M20,62l.84.63" style="fill: #fff"/>
      </g>
    </g>
  </g>
</svg>
