<svg xmlns="http://www.w3.org/2000/svg" viewBox="0 0 202 140">
  <title>materials_block</title>
  <g id="Layer_2" data-name="Layer 2">
    <g id="Layer_2-2" data-name="Layer 2" style="opacity: 0.2">
      <rect x="1" y="1" width="200" height="138" style="fill: #fcfcfc;stroke: #fff;stroke-miterlimit: 10;stroke-width: 2px;opacity: 0.2"/>
    </g>
    <g id="Layer_6" data-name="Layer 6">
      <circle cx="100" cy="70" r="53" style="fill: none;stroke: #fff;stroke-miterlimit: 10;stroke-width: 4px"/>
      <circle cx="100.54" cy="69.66" r="44.52" style="fill: none;stroke: #fff;stroke-miterlimit: 10;stroke-width: 4px"/>
      <circle cx="91.5" cy="47" r="4.5" style="fill: #fff"/>
      <circle cx="120.5" cy="69.5" r="4.5" style="fill: #fff"/>
      <circle cx="91.5" cy="91.5" r="4.5" style="fill: #fff"/>
      <path d="M99.92,88.31A9,9,0,1,1,96.5,84L111.72,71.5a9.07,9.07,0,0,1,.13-4.48L96.5,54.5h0a7.87,7.87,0,0,1-5,1.5,9,9,0,1,1,8.32-5.56l15,12.1A9,9,0,1,1,114.31,76Z" style="fill: none;stroke: #fff;stroke-miterlimit: 10;stroke-width: 3px"/>
    </g>
  </g>
</svg>
