<svg xmlns="http://www.w3.org/2000/svg" viewBox="0 0 202 140">
  <title>rocket_launcher_block</title>
  <g id="Layer_2" data-name="Layer 2">
    <g id="Layer_2-2" data-name="Layer 2" style="opacity: 0.2">
      <rect x="1" y="1" width="200" height="138" style="fill: #fcfcfc;stroke: #fff;stroke-miterlimit: 10;stroke-width: 2px;opacity: 0.2"/>
    </g>
    <g id="Layer_4" data-name="Layer 4">
      <path d="M16.16,59.92c.53-1.68,1.78-2,3.37-2,7.37,0,14.75.2,22.11,0,17-.51,33.95-.08,50.92-.23a2.5,2.5,0,0,0,2.24-.91,6.28,6.28,0,0,1,1-3.56A5.27,5.27,0,0,0,96,51.59a17.16,17.16,0,0,0,2.34-.32c1.41-.37,2.8-.86,4.19-1.31a.66.66,0,0,0,.35-.21c.66-1.05,1.78-1.28,2.84-1.63s2.11-.59,2.37-1.85c.49,0,.86-.09,1.22-.08a4.25,4.25,0,0,0,2.26-.57,20.28,20.28,0,0,1,2.9-1.06s0,0,0,0c-.82-1.39-.68-1.7.87-1.7h25.89c.32,0,.64.05,1.16.1l-.17,1.56,1.2,1.69h4.24v3.2c-1.62.4-3.31,0-5.06.28a8.75,8.75,0,0,0-.15,1,22.83,22.83,0,0,0,0,2.38c.09,1.18-.09,2.14-1.44,2.45-.06,0-.11.14-.15.22a1.7,1.7,0,0,0,0,.33,8.11,8.11,0,0,0,1.12.17c1.45,0,2.89,0,4.34,0a2.39,2.39,0,0,1,1.56.46,2.31,2.31,0,0,0,1.29.36c2.71,0,5.41,0,8.12,0a6.54,6.54,0,0,0,2-.44c1.14-.41,2.23-.94,3.37-1.35a6.14,6.14,0,0,1,1.89-.4c2.15,0,4.29,0,6.44,0,1.24,0,1.28.14,1.43,1.35a21.57,21.57,0,0,0,.65,3,7.66,7.66,0,0,1,.08,2.85c-.55,0-1,.09-1.45.09-3.22,0-6.44,0-9.66,0a9.16,9.16,0,0,1-3.9-.83,3.37,3.37,0,0,0-3.46.19,3.71,3.71,0,0,1-2.35.67q-2.24-.06-4.48,0c-1,0-2,.21-3,.23s-1.94-.13-2.91-.16a5.13,5.13,0,0,0-1.36.13c-.14,0-.22.35-.42.68,3.5.08,6.83.2,10.16.21a17.65,17.65,0,0,1,4,.86c1.42.34,2.78.64,4.1-.36A2.8,2.8,0,0,1,160,63.3c3,0,6.06,0,9.1,0a2.74,2.74,0,0,1,.56,0L173,64a14,14,0,0,1-1.16,6.44c-.32,0-.69.07-1.05.08-.93,0-1.87-.07-2.8,0a16.12,16.12,0,0,1-8.79-1.68,3.5,3.5,0,0,0-1.48-.29c-2.94,0-5.88,0-8.82,0a1.91,1.91,0,0,0-1.19.25,2.84,2.84,0,0,1-2.22.58h-7.24v.28H154.2a9.47,9.47,0,0,1,1.12,0c1,.12,1.39.51,1.4,1.54,0,1.59,0,3.17,0,4.76a2.85,2.85,0,0,1-2.84,2.91c-1.72,0-3.45,0-5.18,0H147l-.14,1.93c.72.61,1.47,1.16,2.13,1.81q5,4.92,9.89,9.9c.56.56,1,1.18,1.59,1.76.92,1,.94,1.28,0,2.21-1.15,1.21-2,1.11-3.37.13a57.26,57.26,0,0,1-6.95-6.47c-2.18-2.22-4.24-4.55-6.53-7a7.48,7.48,0,0,1-5.35-1.6V79.28c.28-.14.58-.26.85-.43s.5-.36,1-.72c-1.5,0-2.71,0-3.92,0a1.74,1.74,0,0,0-1.5.87c-.22.3-.35.66-.55,1a1.88,1.88,0,0,1-1.73,1c-1.26,0-2.52,0-3.78,0s-1.54-.27-1.67-1.52c0-.27-.07-.54-.1-.76-.67-.39-.89,0-1.09.45-.35.86-.73,1.7-1.11,2.55-.75,1.68-2.28,2.29-3.9,2.6a16.86,16.86,0,0,1-3.08,0l-.7-1.93a17.55,17.55,0,0,0-2.58,0,2.1,2.1,0,0,0-1.22.81c-1.38,1.88-2.7,3.79-4,5.72a2.2,2.2,0,0,0-.22,1c0,.27.09.55.1.83,0,1.08-.19,1.33-1.27,1.35-1.63,0-3.27,0-4.9,0-1.07,0-2.15-.07-3.22,0a5.68,5.68,0,0,1-3.31-.91c-2.86-1.57-5.72-3.13-8.57-4.71A4.15,4.15,0,0,0,85.59,86a5.63,5.63,0,0,1-3.18-.86c-1.12-.66-2.34-1.17-3.49-1.78-.88-.47-1.68-1-1.75-2.16a1,1,0,0,0-.4-.68,1.46,1.46,0,0,1-.68-1.56c.08-1.25.19-2.5.24-3.75,0-.46-.12-.92-.14-1.38a5,5,0,0,1,.05-1.51c.25-.88.74-1.16,1.82-1.16H89.39c1.53,0,3.11.25,4.18-1.28.12-.17.39-.22.57-.31.1-1.33,0-1.47-1.17-1.48-2.33,0-4.67,0-7,0-8.21,0-16.43.22-24.63-.06-9.28-.32-18.56.08-27.82-.29-4.8-.19-9.59-.15-14.39-.17-1.45,0-2.43-.37-3-1.72v-.56L18,64a2.51,2.51,0,0,1,.84-.45,28.94,28.94,0,0,1,3-.31c1.3-.05,2.61,0,3.91,0a4.15,4.15,0,0,0,.86-.2c-.26-.72-.78-.6-1.22-.61-1.16,0-2.33,0-3.49,0-3.29,0-3.29,0-5.82-2Zm84.28,24.26,2.68.37a2,2,0,0,0,1.94-.84c1-1.18,2-2.34,2.94-3.53a2.58,2.58,0,0,0,.27-2.89,1.27,1.27,0,0,0-1.19-.83,38.19,38.19,0,0,0-4.19,0,2.33,2.33,0,0,0-2.22,2A36.25,36.25,0,0,0,100.44,84.18Zm21.63-6.59a23.39,23.39,0,0,0-4.3.12,2.9,2.9,0,0,0,.31,2.87,14.83,14.83,0,0,0,2.22,0C121.83,80.32,122.37,79.44,122.07,77.59ZM38.83,62.83c-.21-.14-.36-.32-.54-.36a19.84,19.84,0,0,0-5.61.31,3.32,3.32,0,0,0,.84.46C35,63.5,38.12,63.26,38.83,62.83ZM146.5,47.39a8.05,8.05,0,0,0-3.26.18c1,1.28,2.12.81,3.26.77Zm-40.44,22a2.48,2.48,0,0,0,2.43.09A1.64,1.64,0,0,0,106.07,69.38Z" style="fill: #fff"/>
    </g>
  </g>
</svg>
