<svg xmlns="http://www.w3.org/2000/svg" viewBox="0 0 202 140">
  <title>scout_rifle_block_1</title>
  <g id="Layer_2" data-name="Layer 2">
    <g id="Layer_2-2" data-name="Layer 2" style="opacity: 0.2">
      <rect x="1" y="1" width="200" height="138" style="fill: #fcfcfc;stroke: #fff;stroke-miterlimit: 10;stroke-width: 2px;opacity: 0.2"/>
    </g>
    <g id="Layer_7" data-name="Layer 7">
      <path d="M127.55,56.07a19.72,19.72,0,0,1,3.12-.53c5.14-.06,10.27,0,15.41-.06,1.15,0,2.29-.15,3.49-.24l.4,1.18c.14-.09.3-.28.41-.25,3,.78,6-.53,9.06-.14,1.33.17,2.67.16,4,.24,0,3.42-.06,3.41-3.34,4.09a5.46,5.46,0,0,0-2.43,1.09c6.35.17,12.66-.08,18.95.28l0,.76-6,.21v.64a9.52,9.52,0,0,0,1.62.37,26.84,26.84,0,0,1,3.23.08c.54.1,1,.77,1.47,1.18-.47.31-.91.85-1.4.88-2.69.2-5.38.39-8.08.37s-5.55-.28-8.33-.41a2.35,2.35,0,0,0-1.59.61l2.15.88c1.08,2.93-.83,5.06-1.5,7.54-1.86.24-3.63.78-4.75-1.4-.19-.37-1.08-.53-1.65-.53-9.73,0-19.47-.09-29.2,0a34.58,34.58,0,0,0-6.09,1.12l-10.33,2.05c-.71,3.06-1.52,6.69-5,8.34a13.79,13.79,0,0,1-9.5,1c.13-1.08.2-2.11.4-3.12.57-2.77.19-3.29-2.51-3.32-2.88,0-3.08.11-3.85,3a47.9,47.9,0,0,0-1.32,5.23c-.6,4-3.31,7-5.28,10.25-.42.7-1.66.9-2.7,1.42a12,12,0,0,1,.53,1.5c.44,1.92-.11,2.65-2.13,2.72-1.44.05-2.88,0-4.33,0-.44,0-1.07.06-1.3-.19-2.17-2.33-5.29-1.93-7.95-2.83-2.37-.8-5.29-.78-7.08-2.22s-2.29-4.18-3.34-6.37a18.14,18.14,0,0,1-1.14-2.74,5.94,5.94,0,0,1,1.58-6c-1.22-.37-2.2-.73-3.21-1Q42.06,80.4,36,79c-2.89-.65-3.4-.33-4.23,2.57-.37,1.3-.68,2.61-1,3.92s-1.05,2.17-2.45,2-1.56-1.26-1.56-2.44c0-5.5.14-11-.06-16.49-.11-3.12-.79-6.21-1.16-9.32a23.29,23.29,0,0,1,0-2.65c2,0,3.9-1.08,5,1.33,2.14-1,3.94-1.08,5.31,1a1.91,1.91,0,0,0,1.43.58c4.4-.07,8.8-.25,13.21-.28a4.17,4.17,0,0,0,3.22-1.43c4.9-4.93,2.84-4.1,10-4.34,4-.13,7.92,0,11.88,0,2.71,0,2.71,0,4.37-2.68l-7.76-.83V42.62c1.78-.19,3.52-.41,5.27-.57,1.5-.13,2.92-.16,3.63-2,.44-1.11,4.17-1.26,4.5-.14.59,2,2.39,1.45,3.55,2.12.9.53,2.26.28,3.42.34,2.79.15,3.67-.46,4.52-3.12a4.78,4.78,0,0,1,.34-1c1-1.66,6.58-2.95,8.88-1.81-2.46,2.08-5.77,1.58-7.76,2.9.21,3.32.48,6.31.57,9.3.06,2.14-1.23,3.13-3.1,2.18-2.39-1.21-4.68-.34-7-.52l-.06.57,1.26.23c1.72.27,3.44.57,5.17.8,2.29.31,4.68.24,6.85.92a46.18,46.18,0,0,0,8.72,1.7,19.47,19.47,0,0,1,3,.82c.13-1.26.53-2.16,2.11-2.15,10.09.05,20.19,0,30.28,0,.25,0,.51.14.89.68a7.4,7.4,0,0,1-1.67.38c-8.64-.06-17.29-.16-25.93-.22a2.43,2.43,0,0,0-1.82.88l9.84,1a32.37,32.37,0,0,0,16.32,0Zm-54.4,14.2v0a25.21,25.21,0,0,0-3.49,0,3.46,3.46,0,0,0-2.06,1c-1,1.23-.72,3.31-2.53,4.12-.11,0-.07.5,0,.77.2,2.64,5,5.64,7.38,4.49,2.08-1,4.08-2.19,6.09-3.34,1.62-.94,2.51-2.63,2.18-4a4.59,4.59,0,0,0-3.75-3.06C75.67,70.18,74.4,70.27,73.15,70.27Zm5-13.5c-5,0-9.6,0-14.17,0-1.58,0-2.64,1-2.63,2.14s.87,1.9,2.66,1.91c4.67,0,9.34,0,14.13,0C76.22,59,76.37,59,78.19,56.76ZM96.74,71c-3,.4-4,1.34-3.64,3.83.19,1.37,2.82,3.81,4.12,3.6a3.62,3.62,0,0,0,2.23-1.24,4.07,4.07,0,0,0,0-4.56C98.92,71.81,97.66,71.5,96.74,71Z" style="fill: #fff"/>
    </g>
  </g>
</svg>
