<svg xmlns="http://www.w3.org/2000/svg" viewBox="0 0 202 140">
  <title>shader_block</title>
  <g id="Layer_2" data-name="Layer 2">
    <g id="Layer_2-2" data-name="Layer 2" style="opacity: 0.2">
      <rect x="1" y="1" width="200" height="138" style="fill: #fcfcfc;stroke: #fff;stroke-miterlimit: 10;stroke-width: 2px;opacity: 0.2"/>
    </g>
    <g id="Layer_4" data-name="Layer 4">
      <path d="M93.5,58.5l-13-18a20.86,20.86,0,0,0-6,6l16,14A13.61,13.61,0,0,1,93.5,58.5Z" style="fill: #fff"/>
      <path d="M83.5,38.5c2.21-2.74,13.8-5.68,21-4l-2,22c-1.94-.81-6.19-.31-8,1Z" style="fill: #fff"/>
      <path d="M116.5,72.5a7.65,7.65,0,0,1-2,5l19,10c4.3-3.36,4.77-10.74,5-13Z" style="fill: #fff"/>
      <path d="M114.5,78.5a2.3,2.3,0,0,1-1,1l17,13a5.25,5.25,0,0,0,2-3Z" style="fill: #fff"/>
      <path d="M103.5,85.5a19,19,0,0,1-17-11l-20,5c3.17,17.11,20.32,30,39,28Z" style="fill: #fff"/>
      <path d="M86.5,73.5a8,8,0,0,1,0-3h-21c0,4,.45,7,1,7Z" style="fill: #fff"/>
      <path d="M108.5,106.5l-4-21a28.34,28.34,0,0,0,3-1l8,19C114.05,105.3,110.29,106.29,108.5,106.5Z" style="fill: #fff"/>
      <path d="M102,19.38A50.63,50.63,0,1,0,152.63,70,50.63,50.63,0,0,0,102,19.38ZM101.5,111A40.5,40.5,0,1,1,142,70.5,40.5,40.5,0,0,1,101.5,111Z" style="fill: #fcfcfc"/>
    </g>
  </g>
</svg>
