<svg xmlns="http://www.w3.org/2000/svg" viewBox="0 0 202 140">
  <title>ship_block</title>
  <g id="Layer_2" data-name="Layer 2">
    <g id="Layer_2-2" data-name="Layer 2" style="opacity: 0.2">
      <rect x="1" y="1" width="200" height="138" style="fill: #fcfcfc;stroke: #fff;stroke-miterlimit: 10;stroke-width: 2px;opacity: 0.2"/>
    </g>
    <g id="Layer_4" data-name="Layer 4">
      <g id="vt6ov6.tif">
        <path d="M15.6,111c-.62.12-.35-.35-.4-.6a2.75,2.75,0,0,0,.32-.23l5.11-4.9c.26-.25.56-.47.83-.71l2.27-2-.87-.47a8.45,8.45,0,0,1,.94-.7,71.28,71.28,0,0,0,6.83-3.91c1.07-.73,2.24-1.3,3.33-2s1.81-1.35,2.72-2q6.83-4.93,13.67-9.84,2.43-1.74,4.91-3.4c2.6-1.74,5.2-3.47,7.83-5.16a2.28,2.28,0,0,0,1.08-1.58c.15-.75.28-1.5.45-2.25A3.76,3.76,0,0,1,65.93,69a4.8,4.8,0,0,0,.58-.66c-1,.05-1.86.37-2.81-.24.32-.42.59-.75.82-1.09a4.73,4.73,0,0,0,.64-1.1c.21-.63.28-1.3.46-1.93a1.86,1.86,0,0,1,.43-.64,5.42,5.42,0,0,1,.58-.5c-.73-.34-.41-1.2-1.09-1.52a5.44,5.44,0,0,1,.49-.61c.81-.74,1.59-1.52,2.46-2.18a2.1,2.1,0,0,0,.86-1.27c.48-2.2.94-4.41,1.42-6.65a2,2,0,0,0-1.95-.45,13.64,13.64,0,0,1-2.73.47,1.39,1.39,0,0,1-.78-.07c-1.42-.58-2.83-1.16-4.23-1.79-.61-.27-.65-.72-.14-1.15.29-.25.63-.46,1-.72a2.72,2.72,0,0,0-.38-.27c-1.22-.53-2.44-1-3.66-1.59a1.29,1.29,0,0,0-1.32.11,1.62,1.62,0,0,1-1.79,0c-.88-.47-1.8-.87-2.69-1.32-.19-.1-.45-.29-.46-.46a3.85,3.85,0,0,1,.37-2.7,36.33,36.33,0,0,0,2.21-3.44A3.1,3.1,0,0,1,56,35.83l5.38-2.12c1.7-.67,3.39-1.37,5.1-2,.93-.37,1.33-.11,1.34.88,0,1.37,0,2.73,0,4.1a1.22,1.22,0,0,1-.53,1.11c-.47.34-.9.75-1.4,1.17a2.93,2.93,0,0,0,.55.22l3.05.44c.29,0,.62.21.87.13,1.19-.36,2.3.09,3.44.22a10.6,10.6,0,0,0,2.16.13,2.89,2.89,0,0,1,1.36.12c1.46.55,2.93,1.1,4.38,1.67.42.17.88.31,1,.89,0,.14.26.28.43.37.33.16.68.28,1,.42A2.5,2.5,0,0,0,86,43.6c2.82-.92,5.59-1.93,8.31-3.12,3.62-1.59,7.25-3.16,10.92-4.65,3-1.22,6.1-2.3,9.15-3.44l3.27-1.19h.6a9,9,0,0,1-.56,1c-.83,1.16-1.68,2.29-2.57,3.51,3.79,1.51,5.17,4.21,4,8.23.86-.43,1.56-.8,2.29-1.12a1.14,1.14,0,0,1,.74-.1c1.17.39,2.32.82,3.47,1.26a3,3,0,0,1,1,2,.42.42,0,0,1-.09.17,4.36,4.36,0,0,1-.91.89c-1.14.61-2.33,1.14-3.5,1.71L117.6,51a3.38,3.38,0,0,0,.38.3c1.05.57,2.15,1.07,3.16,1.71,1.17.75,2.57,1.05,3.64,2,.66.58,1.38,1.1,2.15,1.7a23.16,23.16,0,0,1-3.3,3.36,5.66,5.66,0,0,0,.44.51,3,3,0,0,1,1,1.57,2,2,0,0,0,.21.45c.33.63.41.63,1.1.54a7.11,7.11,0,0,0,3-1.26,2.7,2.7,0,0,0,1.44-2.43,4.67,4.67,0,0,1,.51-2.7,10.41,10.41,0,0,1,1.21-1.57c1.66-1.77,3.36-3.51,5-5.26.11-.12.21-.26.33-.38,1.06-1.11,2.11-2.21,3.18-3.31a2.11,2.11,0,0,1,.6-.36l6.82-3.31c1-.48,1-.49,1.81.3,1.62,1.67,3.22,3.36,4.84,5a1.54,1.54,0,0,1,.44,1c.11.92.26,1.84.43,2.75s.53,1.16,1.53.78a4.24,4.24,0,0,1,1.92-.4A5.84,5.84,0,0,1,164,54.79a6.08,6.08,0,0,1,.87,4.66A3.72,3.72,0,0,1,163,62.07a1.71,1.71,0,0,0-.73.88,6.59,6.59,0,0,1-2.9,3.44c-1,.53-2,.94-3.07,1.41-.38.17-.75.37-1.21.59.6,1,1.15,1.84,1.68,2.71A4,4,0,0,0,159.21,73a8.42,8.42,0,0,1,1.39.56,1.1,1.1,0,0,0,1.14,0,1,1,0,0,1,1,0c1.36.55,2.73,1.05,4.09,1.59,1,.38,1.92.76,2.86,1.17a1.24,1.24,0,0,1,.58.49c.08.15,0,.41-.07.61.7.57,1.43,1.14,2.13,1.75.39.34.87.62.94,1.23,0,.13.18.28.31.37l2.58,1.91a5.08,5.08,0,0,0,.54-.26l6.07-3.84,2.29-1.42a1.14,1.14,0,0,1,1.31-.05v2.4c-.13.87-.27,1.75-.39,2.62a3,3,0,0,1-.58,1.86c-.91,1-1.82,1.94-2.71,2.92s-1.78,2.06-2.7,3.06a14.38,14.38,0,0,1-1.93,1.87c-1.23.91-2.55,1.69-3.81,2.56a.93.93,0,0,1-1.1.1Q172,94,170.76,93.39a.83.83,0,0,1-.57-.94c.11-.75-.3-1-.94-1.28-2.29-.89-4.56-1.84-6.84-2.76l-6.81-2.75c-2.16,1-3.13,1.63-5.38.54-1.37-.67-2.82-1.18-4.22-1.8-.76-.34-.79-.65-.22-1.28.3-.33.63-.64,1-1-1-.43-1.93-.8-2.82-1.16a.89.89,0,0,0-.39,0c-1,.09-2,.22-3,.28-2.22.15-4.44.27-6.66.41s-4.44.29-6.66.39a2.81,2.81,0,0,0-1.6.48,5.94,5.94,0,0,1-2.71.94c-1.77.28-3.54.5-5.3.82a28.49,28.49,0,0,1-3.55.45c-1.54.08-3.08.24-4.7.38a1.52,1.52,0,0,1-.83,1.15l-1.21.7-3.31,1.84c-.79.43-1.57.87-2.37,1.29a1.13,1.13,0,0,1-1.64-.44,1.15,1.15,0,0,1,.39-1.63c.3-.21.62-.38.94-.57l1-.54L94.94,85a2.18,2.18,0,0,0-.68,0c-2.08.16-4.07.91-6.2.91-1.72,0-3.44.27-5.16.32a5.21,5.21,0,0,0-2.54.76,13.9,13.9,0,0,1-1.4.76c-1.31.58-2.62,1.15-3.94,1.68q-5.32,2.14-10.65,4.25c-2.6,1-5.22,2-7.83,3s-5.11,1.92-7.64,2.92a41.41,41.41,0,0,0-5.95,2.54c-2.67,1.56-5.49,2.86-8.19,4.37a5.7,5.7,0,0,1-3.23.76,7.16,7.16,0,0,0-2.84.38,64.27,64.27,0,0,1-9.91,2.66C17.71,110.45,16.66,110.75,15.6,111Z" style="fill: #fff"/>
      </g>
    </g>
  </g>
</svg>
