<svg xmlns="http://www.w3.org/2000/svg" viewBox="0 0 202 140">
  <title>shotgun_block</title>
  <g id="Layer_2" data-name="Layer 2">
    <g id="Layer_2-2" data-name="Layer 2" style="opacity: 0.2">
      <rect x="1" y="1" width="200" height="138" style="fill: #fcfcfc;stroke: #fff;stroke-miterlimit: 10;stroke-width: 2px;opacity: 0.2"/>
    </g>
    <g id="Layer_4" data-name="Layer 4">
      <path d="M192.16,60c-.77,1-1.57,2-2.28,3a2.42,2.42,0,0,0-.25,1.27c0,2.13.54,4.42-1.66,5.91a3.3,3.3,0,0,1-1.59.73c-4.06.05-8.13,0-12.19,0-1,0-1.63.07-1.77,1.39-.06.59-1.14,1.17-1.86,1.57-1,.55-2.06.91-3.09,1.37-.32.14-.61.44-.94.47-7.92.92-15.69,3.46-23.75,2.69-5-.48-9.91-1.59-14.88-2.37-1.25-.2-2.53-.2-3.8-.33-1-.11-1.88,0-2.19,1.24a1.4,1.4,0,0,1-1.06.77,56.11,56.11,0,0,1-6,0c-.46,0-1-.74-1.26-1.26-.63-1.41-1.32-2.54-3.12-2.63a1.92,1.92,0,0,1-1.3-1.36c0-1.41-.65-1.64-1.79-1.53a40.74,40.74,0,0,1-5.19.41c-1.79-.06-3.69.68-5.36-1-.6-.62-2.2-.33-3.34-.35q-3.36-.06-6.73,0c-1.44,0-2.7.28-3.24,2-1.26,4-1.67,4.69-5.85,4.37-3.21-.24-5.07,2.18-7.8,2.68-.61.11-1.19,1.16-1.54,1.89Q66,85.75,63.85,90.76c-.2.46.08,1.13.15,1.7s.32,1,.13,1.25a1.49,1.49,0,0,1-1.29.36c-3.12-1-6.24-2-9.29-3.14-.34-.13-.6-1.5-.35-2,1.56-3.15,3.25-6.23,5-9.31a37.71,37.71,0,0,0,2.44-4.11c.41-1,.71-2.79.16-3.38-1-1.13-1.32-3.46-3.74-3-1.13.2-2.38.24-2.33-1.58,0-.28-.58-.82-.9-.83a2.87,2.87,0,0,0-2,.4c-1.31,1.38-2.68,1.28-4.18.21-.91-.65-2.44-.64-3.68-.59-2.71.09-5.42.66-8.12.54-2.36-.1-2.69,1.21-3.1,2.91a6,6,0,0,1-1.17,2.44c-.95,1.09-2.34,1.84-3.14,3-2.29,3.37-5.84,2.54-9,2.78-2,.16-3.69-1.8-3.91-3.94C15,69,14.41,63.48,13.93,58c-.26-3,2.05-4.71,4.88-4,1.13.29,2.42-.15,3.6,0,2.8.43,4.64-2.16,7.28-2.13s5.46,0,8.19,0,5.35-.16,8,.09a7.36,7.36,0,0,1,3.53,1.64c1,.77,4.81,1.73,5.89,1.08a13.84,13.84,0,0,1,2.29-1.44,2.06,2.06,0,0,1,1.8.33,4.72,4.72,0,0,0,6.78-.44A10.53,10.53,0,0,1,64,53.06c-.41-.11-1-.57-1-.9,0-.5.31-1.39.64-1.46,3.56-.8,7.15-1.49,10.73-2.16,1.52-.28,2.25.32,2.07,2s0,2.92,2.46,2.36c1.74-.39,3.71.44,5.56.33,3-.17,6-.59,9-1,2.47-.36,4.9-1.27,7.23.6.34.27,1.36-.25,2.05-.47,1-.32,2-1,3-1,6.72.15,13.44.53,20.16.68,10.66.22,21.32.31,32,.46h.61c.07.45,12.14,0,12.55,0a5.76,5.76,0,0,0,2.87-1c2-1.33,8.47-1.41,9.24-.9.21-1.23.27-1.51.85-1.51,1,0,1.5,1,2,1,.22-.42-.18-.56,0-1s3,.48,3,1c.69,1.83.06,2.77,2.11,3.09l1,5.42ZM21.88,70.23h0a24.63,24.63,0,0,0,0,2.53,4.12,4.12,0,0,0,.55,1.2,4.38,4.38,0,0,0,1-.66c1.58-1.83,3.14-3.67,4.65-5.55a1.31,1.31,0,0,0,.2-1.18,2.14,2.14,0,0,0-1.29-1,8.57,8.57,0,0,0-3.4.23,3.39,3.39,0,0,0-1.66,1.9A7.44,7.44,0,0,0,21.88,70.23ZM78,71c-2.48-.6-2.94.81-3,2.78-.05,1.34.54,1.63,1.73,1.61,2.65,0,3.89-.91,4-2.92C80.73,70.14,78.95,71.23,78,71ZM29.15,60l.08.52h11c1.27,0,2.58-.3,3.39,1.3.24.47,1.48.44,2.45.68-.71-3-.71-3-3.19-3-3.81,0-7.62,0-11.42,0A11.49,11.49,0,0,0,29.15,60ZM170.39,63.1v-.24H132.67v.24Zm-40.9-10,0,.38h23.93v-.38Zm-23.06-1.51-.09.61,19.42,1V53ZM57,60.28l-.66.61a7.56,7.56,0,0,0,1.14,1.47c.12.1.75-.43,1.14-.68Z" style="fill: #fcfcfc"/>
    </g>
  </g>
</svg>
