<svg xmlns="http://www.w3.org/2000/svg" viewBox="0 0 202 140">
  <title>sniper_rifle_block</title>
  <g id="Layer_2" data-name="Layer 2">
    <g id="Layer_2-2" data-name="Layer 2" style="opacity: 0.2">
      <rect x="1" y="1" width="200" height="138" style="fill: #fcfcfc;stroke: #fff;stroke-miterlimit: 10;stroke-width: 2px;opacity: 0.2"/>
    </g>
    <g id="Layer_3" data-name="Layer 3">
      <path d="M85.29,72.56c1.47.13,2.93.37,4.4.37,7.49,0,15-.08,22.48-.08a8.77,8.77,0,0,1,2.14.67,3.15,3.15,0,0,1,3.87.92,2.11,2.11,0,0,1,.19,1.55c-.06.25-.68.49-1.06.52-1,.07-2.1,0-3.15,0s-2.4-.31-3.35.8c-.18.21-.76.12-1.15.12-5.3,0-10.6,0-15.9,0A5.64,5.64,0,0,1,92,76.72a3.52,3.52,0,0,0-1.07-.38,25.6,25.6,0,0,0-3.3,0,1.61,1.61,0,0,0-1.15.66c-1.2,2.4-3.63,2.89-5.8,3.42a18.38,18.38,0,0,1-5.67.05c-1.63-.13-3.23-.55-5.07-.88l-.37-1.14-.38,0A23.47,23.47,0,0,0,69.39,81c.38,2-.24,3.07-2,4-2.94,1.57-6.2,1.24-9.32,1.76-.39.07-1.19-.66-1.35-1.17a30.1,30.1,0,0,1-.74-3.79c-1.94.29-3.08-.37-4.19-2a3.73,3.73,0,0,0-1.92-1.16,12.67,12.67,0,0,0-1.94,0c-2-.28-2.73.8-2.45,2.81a4.85,4.85,0,0,0-3,4.28c-.12,1.16-.55,1.16-1.45.94-5.32-1.31-10.61-2.74-16-3.81-2.41-.48-5-.23-7.46-.28a1.29,1.29,0,0,0-.66.31c-1.87,1.33-3.53.7-3.73-1.59s0-4.4-.14-6.59a24.27,24.27,0,0,0-1-4.16c-.11-.42-.48-.82-.48-1.23-.05-3.3-.25-3.28,2.95-3.19,1.51,0,3,.48,4.52.49.88,0,1.74-.63,2.64-.72a31,31,0,0,1,4.11,0c.21,0,.41.37.79.72a13.48,13.48,0,0,0,2.4.53,19.2,19.2,0,0,0,3-.21c1.13-.11,2.26-.32,3.39-.35,2.31-.06,4.62,0,6.66,0l-1.41-.14C44,64.27,44,64.27,47.44,64.27c2.2,0,4.4,0,6.6,0,.45,0,.9-.07,1.35-.11l0-.42H44.28l-.32-.5,2.36-1.72c-.32-2.31-2-2.05-3.17-1.95-1.4.12-1.73-.57-2-1.6-.45-1.84-.15-2.34,1.61-2.75.19,0,.44-.12.52-.26,1.06-1.9,2.92-1.35,4.48-1.33,5.07.07,10.13.29,15.19.45.7,0,1.4,0,2.36,0l-.66,5.68H62.23l-1.52,1.73L67,64.39l.63-2.45c1.92.11,3.9.17,5.87.37a12.08,12.08,0,0,1,2.75.72,49.06,49.06,0,0,0,19.18,2.43,3.61,3.61,0,0,1,2.94,1.1,3.78,3.78,0,0,0,2.2.91c1.49.12,3-.17,4.5,0,1.89.23,3.45-.08,4.54-1.92l.23.34-1.08,1.43c1.19.24,2.26.47,3.09-.65a3.16,3.16,0,0,1,2.74-1.2c.93,0,1.84-.61,2.79-.69a29,29,0,0,1,4.32,0,2.79,2.79,0,0,1,.06,1.53c-.27.62-1.37,1-.39,1.92l-1.21-.1c.36.33.49.53.62.54,1.75.07,3.51.12,5.26.16,4.14.09,8.28.22,12.43.25,4.39,0,8.78,0,13.17-.06s8.88,0,13.31-.14c1.31,0,3,.64,3.53-1.23h21.73l.14.35a6.17,6.17,0,0,1-1.94.73c-4.65,0-9.3,0-13.94,0a13.8,13.8,0,0,0-4.18.77,7.51,7.51,0,0,1,1.29.16c.66.2,1.28.56,1.94.72a12.14,12.14,0,0,0,2.58.35c4,0,8.1,0,12.15,0,.35,0,.79-.14,1,0A17.83,17.83,0,0,1,191,72.31a6.45,6.45,0,0,1-1.81.57c-5.85,0-11.7,0-17.55,0-1.42,0-2.79-.08-3.59-1.58-.14-.26-.79-.34-1.2-.34-14.15,0-28.35-.79-42.43.21-12.59.9-25.13.13-37.67.71a4.51,4.51,0,0,0-1.45.66l-6.95-.35v.35Zm-43.7,3.87a2.12,2.12,0,0,0-2.3-2.25c-4.75,0-9.5.15-14.25,0a5.48,5.48,0,0,0-5.12,2.26c-.64.85-1.21,1.64-.78,2.69s1.42,1.25,2.49,1.24c3.45,0,6.9-.07,10.35,0a7.66,7.66,0,0,1,3.29.74c2,1.05,2.9,1,4.11-.87.6-.92,1.17-1.86,1.73-2.81A9.27,9.27,0,0,0,41.59,76.43Zm9.76,1.45c1.63,0,2.8-.78,2.52-1.8a2.6,2.6,0,0,0-1.61-1.57c-1.09-.25-2.32,1.11-2.35,2.19S50.61,78,51.34,77.88Zm9.47.49-.5.37c.18,1.32.31,2.66.57,4,.05.27.58.45.89.67.14-.32.44-.65.41-.95a24.22,24.22,0,0,0-.58-3.24C61.51,78.87,61.08,78.64,60.81,78.37Zm-7.89,1c0,1.6,1.07,1.73,2,2a3.73,3.73,0,0,0,.31-.9C54.46,80.06,53.69,79.73,52.92,79.39Zm15.17-8.11-.42.28.8,1.39c.33-.27.89-.5.95-.82.12-.65.46-1.55-.69-1.75-.09,0-.21.16-.32.24l-.45.53,1.23.16-.21.26Zm2.39,1.83,0,.22h6.38v-.22ZM46.54,76.48l-.17.49,3,1.07C48.95,76,47.33,77.39,46.54,76.48Z" style="fill: #fcfcfc"/>
    </g>
  </g>
</svg>
