<svg xmlns="http://www.w3.org/2000/svg" viewBox="0 0 202 140">
  <title>sparrow_block</title>
  <g id="Layer_2" data-name="Layer 2">
    <g id="Layer_2-2" data-name="Layer 2" style="opacity: 0.2">
      <rect x="1" y="1" width="200" height="138" style="fill: #fcfcfc;stroke: #fff;stroke-miterlimit: 10;stroke-width: 2px;opacity: 0.2"/>
    </g>
    <g id="Layer_4" data-name="Layer 4">
      <path d="M15.2,83c1.09-1.68,2.24-3.31,3.25-5,3.09-5.28,6.1-10.61,9.18-15.89a6.22,6.22,0,0,1,5.95-3.3c3.43.08,6.86,0,10.29,0,2.16,0,2.16,0,1.37,2.05.93,0,1.82,0,2.7,0,1.09,0,1.37.43,1,1.46-.26.71-.59,1.39-.9,2.12H68.3l-2.68-2.45c.61-.25,1-.45,1.43-.57a154.48,154.48,0,0,1,23.2-5.12c5.3-.77,10.67-1.13,15.95-2.06,2-.35,3.88,0,5.81-.28a57.28,57.28,0,0,1,5.89-.26c5-.2,9.25,1.89,13.44,4.24,1.21.68,2.46,1.31,3.65,2,1,.61,1.88,1.35,2.84,2a2,2,0,0,0,1.11.42q5.33-.44,10.65-1a14.34,14.34,0,0,0,2.83-.6,2.73,2.73,0,0,0,2.07-2.1,9.53,9.53,0,0,1,2.29-4,2.33,2.33,0,0,1,2.48-.88c3.92.8,7.85,1.53,11.77,2.29a3.25,3.25,0,0,1,1.26.5c-4.1,1.91-7.7,4.83-12.32,5.45,1.25.77,1.26.78,2.54.15,3.07-1.53,6.13-3.08,9.2-4.63.06,0,.14,0,.18-.09,1.13-1.33,2.5-.76,3.83-.47,1,.23,1.26.87.88,1.84-.27.71-.83,1-1.34,1.45a26,26,0,0,0-2.08,2.29c-1.7,1.87-1.7,1.87-4.15,2.51a2.32,2.32,0,0,0,1.62.61,2.84,2.84,0,0,1,2.14.7,1.73,1.73,0,0,1-.28,2.39c.66.71,1.29,1.44,2,2.09a1.89,1.89,0,0,0,1.06.42A4.89,4.89,0,0,1,179.74,74c2.15,4,4.43,7.9,6.66,11.85V86c-.89.15-1.79.23-2.66.45A5.88,5.88,0,0,1,178.29,85c-2.92-2.44-5.89-4.82-8.81-7.25-2.71-2.26-5.45-4.49-8-6.88-2.27-2.1-4.34-4.42-6.51-6.63a2.2,2.2,0,0,0-.58-.31l-3.42.17.39.87-1.57-.43c-11.18.91-20.75,6.15-29.88,12.42.92-.4,1.79-.93,2.67-1.41,3.9-2.16,7.73-4.47,11.74-6.41a27.67,27.67,0,0,1,10.48-2.72c3-.17,5.88-.65,8.82-1a3.27,3.27,0,0,0,1-.56l3.67,3.91c-2.42-.56-4.83-1.19-7.37-.75a2.8,2.8,0,0,0-2.18,1.67c-.71,1.5.07,2.81,1.67,2.77,2.85-.07,5.69-.27,8.53-.43.51,0,.88-.83.49-1-.76-.42-.4-1-.48-1.56,1.18,1.12,2.3,2.33,3.55,3.36,3.21,2.65,6.49,5.22,9.74,7.82l1,.82a1.2,1.2,0,0,1-.76-.28,1,1,0,0,0-1.59.47,1.93,1.93,0,0,0,.08.87c.27,1.26.55,2.51.86,3.91-1.45.18-2.76.42-4.08.47a2.76,2.76,0,0,1-1.85-.5c-.9-.85-1.76-.58-2.68-.28-1.51.5-2.31.12-2.88-1.64-.32,1.37-1.27,1.64-2.29,1.82-1.31.24-1.78,0-2.3-1.28-1.13-.19-2.21-.4-3.3-.53a3.91,3.91,0,0,0-1.08.15,9.66,9.66,0,0,1-2.06.32,17.66,17.66,0,0,1-2.52-.5c-.72-.15-2,.54-1.64-1.16,0,0,0,0-.06-.07-.43-.78-.83-1.58-1.3-2.34a1.22,1.22,0,0,0-.71-.55c-1.37-.23-1.45-.33-1.08-1.84l1.36-.12c.13-.68-.12-1-.77-.95a10,10,0,0,0-2.57,0,3,3,0,0,1-2.75-.49c-1-.63-2.6-.42-4-.58,0,1.22-.81,1.3-1.67,1.12-.63-.13-1.22-.49-1.86-.57a7.47,7.47,0,0,0-5.88,1.46,4.26,4.26,0,0,1,2.5,1.48c.15.5.28,1-.4,1.37-1,.48-1.87,1.06-2.82,1.56a5.19,5.19,0,0,1-1.88.86c-2.49.13-5,.11-7.47.15a3.75,3.75,0,0,0-.66.12,33,33,0,0,1-5.07,1,119.13,119.13,0,0,1-21.23-.94c-.83-.12-1.24-.33-1.09-1.21.1-.6-.16-.8-.77-.82-7-.26-14,.61-20.93-.59q-14.6,0-29.2,0c-.34,0-.92.2-1,.39a2.25,2.25,0,0,0,.2,1.38c.2.39.67.63,1,1a1.2,1.2,0,0,1-.4,2,2.88,2.88,0,0,1-1.16.19q-7.75-.06-15.49-.15a5.75,5.75,0,0,1-.6,0,1.93,1.93,0,0,1-1.9-1.83,2.26,2.26,0,0,0-.32-.62Q15.2,83.3,15.2,83ZM84.45,72c-.89-2.44-.91-2.45-3.25-2.46-4.53,0-9.07.08-13.6-.06a31.27,31.27,0,0,0-8.71.82,36.7,36.7,0,0,0-14.33,7.43,4.71,4.71,0,0,0-.5.61h1.47c7,0,14.06,0,21.09.1a12.51,12.51,0,0,0,5.88-1.23c.36-.18.73-.32,1.1-.48ZM45,79l0,.4c1.09.06,2.18.17,3.28.17l47.06.08c1.2,0,2.4,0,3.6,0a5.49,5.49,0,0,0,.95-.19l0-.42C81.59,78.54,63.32,78.93,45,79ZM97.53,65.25c-21,0-41.94-.73-62.9-.11C55.6,65.94,76.57,65.3,97.53,65.25Zm-11.68,9L77,78.2c3,.22,5.92.24,8.86.2.17,0,.49-.4.47-.58C86.25,76.68,86.06,75.56,85.85,74.22Zm-48.55-.9.13.12,5.17-4c-1.27,0-2.22,0-3.17,0a1,1,0,0,0-.72.51C38.21,71.07,37.77,72.2,37.31,73.33Zm47.88,0L85,73c-3.72,1.7-7.55,3.17-11.2,5l.19.41Zm-41.38.46-.15-.2-5.92,4.19.19.41c.28,0,.65,0,.83-.12C40.46,76.71,42.13,75.26,43.81,73.83ZM95,56.6v.33l8.4-.51,0-.4-5.22.34Zm72.57,21.25c-.61,1.89-2.11,2.92-3.78,3.78C166.21,81.44,167.42,80.26,167.58,77.85ZM98.2,70.32c0-2.53,0-2.53,1.37-2.83l-1-.45-.12-1.71L99.93,65c-1.25-.65-1.69-.47-1.72.57C98.18,67.15,98.2,68.74,98.2,70.32Zm47.6.09.26-.12c-.24-.4.4-1.19-.61-1.21a5.7,5.7,0,0,0-1.46.35,6.7,6.7,0,0,0,.86,1c.07.06.49-.3.72-.45Zm16.64,9.11.2.41,4.85-2.43-.18-.37ZM85.89,61.27c2.38,1.31,2.55,1.31,2.81.39Zm69.56,2.5,2.41,2.06-.29.27-1.46-2.44Zm5.14-.83-3,.5c.61.15,1.52-.16,1.72.09C160.31,64.73,160.19,63.54,160.59,62.93Zm5.26,11.53.07-.06-1.05-1.72-1.5-.44ZM155,79.53l1.84-.83C156.15,78.73,155.23,78.11,155,79.53Z" style="fill: #fff"/>
    </g>
  </g>
</svg>
