<?xml version="1.0" encoding="utf-8"?>
<!-- Generator: Adobe Illustrator 22.0.0, SVG Export Plug-In . SVG Version: 6.00 Build 0)  -->
<svg version="1.1" id="Layer_1" xmlns="http://www.w3.org/2000/svg" xmlns:xlink="http://www.w3.org/1999/xlink" x="0px" y="0px"
	 viewBox="0 0 202 140" style="enable-background:new 0 0 202 140;" xml:space="preserve">
<style type="text/css">
	.st0{opacity:0.2;}
	.st1{opacity:0.2;stroke:#FFFFFF;stroke-width:2;stroke-miterlimit:10;enable-background:new    ;}
	.st2{fill:#FFFFFF;}
</style>
<title>submachine_gun_block</title>
<g id="Layer_2_1_">
	<g id="Layer_1-2">
		<g id="Layer_2-2">
			<g id="Layer_1-2-2">
				<g id="Layer_2-2-2">
					<g id="Layer_2-2-2-2" class="st0">
						<rect x="1" y="1" class="st1" width="200" height="138"/>
					</g>
				</g>
				<path class="st2" d="M23.4,58.3v4.5l0.8,3.4l1.1,2.7l1.9,3.8l1.1,2.3l0.4,1.5v2.3l1.1,21.9l0.8,4.5l1.5,2.7l1.1,1.1h4.5l2.3-0.4
					l3.4-1.1l2.3-1.9l2.3-1.9l2.3-1.9l2.7-1.1l1.9-0.8L67,99.3l2.7-0.4l2.3,0.4l36.3,9.8H137l0.8-1.5l-1.9-1.1v-2.4L146,76.5
					l2.3-2.7l1.5-1.5l3-2.7l3.4-0.8l3.8-0.4l-6.8-3.8l24.9-0.4l0.8-2.7h-1.4v-2.1l1.5-0.4v-3h-34v-3l-9.1-7.2H128l-2.7-1.9v-8.7
					h-3.4l-6.8,10.6l-2.7,0.8l-11.7,1.5l-1.5,1.5v0.8h1.5v1.1H70.3l-1.5-1.1l-5.7-1.1l-2.7-0.4l-4.9-0.8l-5.7-0.8h-1.1l-20-0.4
					l-1.5,0.4l-0.8,1.1l-0.8,1.1l-0.4,0.8l-0.4,0.8l-0.4,1.1l-0.4,1.1l-0.4,1.9L23.4,58.3z M107.3,96.5l1.5-3l1.9-3l1.2-2.3
					l-0.4-2.7l0.8-1.5l1.5-1.1l0.8-1.5l-0.4-1.5l-0.8-1.5l-0.4-1.1l2.3-3.4h13.6l1.9,1.9l-11.7,30.6h-6.8l-3.4-1.9l-1.5-3
					L107.3,96.5z M53.3,75l1.4-1l2.2-0.2h39.6l1.1,1.9l1.1,1.5v1.5l-1.1,1.5l-0.7,1.1L96,83.7l0.8,1.9l0.7,1.9l0.4,1.1v1.5l-0.4,1.1
					l-0.7,1.1L96,93.1l-1.1,0.8h-1.6l-33.7-8.6L54.8,83l-1.5-1.5l-0.6-2.1v-2.6L53.3,75z"/>
			</g>
		</g>
	</g>
</g>
</svg>
