<svg xmlns="http://www.w3.org/2000/svg" viewBox="0 0 202 140">
  <title>warlock_icon_block</title>
  <g id="Layer_2" data-name="Layer 2">
    <g id="Layer_2-2" data-name="Layer 2" style="opacity: 0.2">
      <rect x="1" y="1" width="200" height="138" style="fill: #f9f9f9;stroke: #fff;stroke-miterlimit: 10;stroke-width: 2px;opacity: 0.2"/>
    </g>
    <g id="Layer_1-2" data-name="Layer 1">
      <g>
        <path d="M181.05,109.77c-8.87,0-17.75.12-26.62,0a5.26,5.26,0,0,1-3.78-2.13c-3.75-6.17-7.22-12.51-10.81-18.78C133.61,77.89,127.32,67,121.14,56c-.55-1-1.09-2.62-.65-3.42,4.46-8.16,9.13-16.22,14-24.76,1.87,3,3.56,5.64,5.09,8.34q14.15,24.92,28.25,49.87c4.37,7.69,8.82,15.33,13.23,23Z" style="fill: #fcfcfc;stroke: #000;stroke-miterlimit: 10;stroke-width: 0.5px"/>
        <path d="M20.63,109.82,67.1,28.65c1.09,1.65,2,3,2.9,4.42C73.79,39.36,77.57,45.65,81.26,52a3,3,0,0,1-.08,2.48C75.29,64.94,69.29,75.33,63.39,85.78c-4.13,7.3-8.11,14.69-12.28,22a4.16,4.16,0,0,1-2.82,2C39.31,109.88,30.33,109.82,20.63,109.82Z" style="fill: #fcfcfc;stroke: #000;stroke-miterlimit: 10;stroke-width: 0.5px"/>
        <path d="M54.39,109.82,84.48,56.7c4,6.93,7.37,13.55,11.46,19.72,2.8,4.22,2.94,7.44,0,11.77-4.22,6.28-7.48,13.18-11.31,19.73a4.12,4.12,0,0,1-2.92,1.81C72.86,109.88,64,109.82,54.39,109.82Z" style="fill: #fcfcfc;stroke: #000;stroke-miterlimit: 10;stroke-width: 0.5px"/>
        <path d="M117.78,57.47l29.8,52.35H128.35c-10,0-9.9,0-14.68-9-3-5.55-6.18-11-9.2-16.5-.44-.81-.89-2.15-.53-2.8C108.37,73.64,112.95,65.82,117.78,57.47Z" style="fill: #fcfcfc;stroke: #000;stroke-miterlimit: 10;stroke-width: 0.5px"/>
        <path d="M101,27.28c4.33,7.4,8.11,14.33,12.37,20.94,2,3.17,1.58,5.53-.2,8.46-4,6.57-7.67,13.32-11.8,20.54-.82-1.34-1.41-2.26-2-3.19-3.65-6.23-7.23-12.51-11-18.69a5,5,0,0,1,0-6C92.59,42.31,96.53,35.08,101,27.28Z" style="fill: #fcfcfc;stroke: #000;stroke-miterlimit: 10;stroke-width: 0.5px"/>
        <path d="M88.15,109.5l13.17-22.85,13.24,22.85Z" style="fill: #fcfcfc;stroke: #000;stroke-miterlimit: 10;stroke-width: 0.5px"/>
      </g>
    </g>
  </g>
</svg>
