<svg xmlns="http://www.w3.org/2000/svg" viewBox="0 0 202 140">
  <title>auto_rifle_block_1</title>
  <g id="Layer_2" data-name="Layer 2">
    <g id="Layer_2-2" data-name="Layer 2" style="opacity: 0.2">
      <rect x="1" y="1" width="200" height="138" style="fill: #fcfcfc;stroke: #fff;stroke-miterlimit: 10;stroke-width: 2px;opacity: 0.2"/>
    </g>
    <g id="Layer_5" data-name="Layer 5">
      <path d="M91.92,98.29c-.36-.32-.67-.83-1.08-.92-2.09-.46-4.21-.82-6.32-1.21-3.3-.6-6.64-1.07-9.9-1.82-5.44-1.24-10.84-2.68-16.26-4-1.25-.3-1.64-.85-.95-2a1.21,1.21,0,0,0,.11-.28C59,83.27,62.18,79.82,66,76.83c.86-.67,1.61-1.41,1.26-2.67s-1.4-1.58-2.53-1.82c-.81-.17-1.59-.49-2.4-.63-2.24-.4-4.51-1-6.69,1l-.14-3.11H46.23l-.15,2c-.12.07-.22.17-.3.16-3.46-.5-6.17,1.27-9,2.87-1.44.82-3,1.38-4.91,2.22-.16.63.3,2.28-1.39,2.54a22.19,22.19,0,0,1-5.51.3c-.43,0-1.21-1.86-1-2.59a34,34,0,0,0,1.27-12.39,61.44,61.44,0,0,0-.78-6.11c-.21-1.37.11-1.79,1.47-1.7,1.2.08,2.42.08,3.61.25a3.66,3.66,0,0,1,1.85.73,5.79,5.79,0,0,0,4.2,1.6c5.55-.09,11.1,0,16.66,0a7.4,7.4,0,0,0,4-1.56l-1.36-.78a20.13,20.13,0,0,1,2.63-1.17c.47-.14,1.47,0,1.52.2.35,1.52,1.51,1,2.43,1.09a27,27,0,0,0,2.8.28c.37,0,.73-.42,1.42-.84-1.45-.23-1.5-.73-.88-1.48a45.72,45.72,0,0,1,3.24-4c.43-.42,1.51-.37,2.25-.26a2.28,2.28,0,0,0,2.43-.83,3,3,0,0,1,1.9-.75c1.46-.13,2.08-.79,1.86-2.26a4.9,4.9,0,0,1,.08-1L77.91,46l1.53,4.75,9,.57c.06-1.46,1.48-.85,2.5-1.08,5.19-1.17,9.86,1.13,14.71,2.19,3.3.72,6.54,1.71,9.83,2.49a17.66,17.66,0,0,0,3.58.46c8.55.25,17.1.46,25.66.67.55,0,1.09,0,1.64,0l-.25-.39c.52-.56,1.09-1.09,1.56-1.69a2.57,2.57,0,0,0,.65-1.31c.07-2.11,0-4.22,0-6.47l2.81.35c0,2,0,4,0,5.93,0,.44.39.86.59,1.3a2.57,2.57,0,0,1,.4,1c-.06,1,.28,1.39,1.29,1.31s2.26-.13,2.66,1.34c0,.16.6.25.92.26.65,0,1.31,0,2,0a1.91,1.91,0,0,1,1.83,2.88c-.18.38-.75.57-1.41,1h5.24l0,.3-.84.27v.49c2.57,0,5.14,0,7.71,0,1,0,2.36,0,3,.57,1.2,1.09,2.48.69,3.75.86.4.05-1.28,1.85-1.68,1.89-2,.18-2,.69-4,.8-4.22.23-8.79-.51-13-.29a1.92,1.92,0,0,0-.41.11c-.21,2.6-.21,2.62-2.95,2.59-.76,0-1.77.4-2-.86-.34.09-.82.08-1,.3a11.94,11.94,0,0,0-1,1.91c1,.07,1.73.11,2.47.18s1.5.15,2.17.22l.85-1.18.41.18-.11.08c.22.25.43.69.67.72,2.06.2,4.12.38,6.19.45s3.89,0,5.78,0c.11.17.2.25.21.33.19,2.56.19,2.57-2.4,2.57-2.17,0-4.34-.08-6.51,0a29.64,29.64,0,0,0-3.09.65,2.7,2.7,0,0,1-1.58-.13c-1.66-.89-2.36-.79-3.47.58a1.29,1.29,0,0,1-.92.34,29.8,29.8,0,0,0-6.31,1,21.65,21.65,0,0,1-9.68,0c-3.53-1-7-.85-10.45-.9-3.84-.06-7.67,0-11.51,0a7.53,7.53,0,0,1-1-.13c-.51-2.28-.51-2.28-3-2,.14,1.25-.64,1.69-1.72,2a13.4,13.4,0,0,0-3.56,1.2,7.35,7.35,0,0,1-3.44,1.29c-.22,0-.58.65-.58,1,.05,5.49.14,11,.25,16.48,0,.79.45,2,.13,2.26-.62.42-1.63.25-2.48.34a1.79,1.79,0,0,0-.42.16ZM83.82,86a13.8,13.8,0,0,0-2.56-.65c-1.54-.07-2-.85-1.72-2.23s-.47-1.88-1.63-2.2A7.52,7.52,0,0,1,75.55,80a3.16,3.16,0,0,0-4.67,1.08c-1.36,2.69-2.65,5.43-4.07,8.09-.63,1.17-.18,1.79.8,2.28a7.3,7.3,0,0,0,1.57.54c4.12,1,11.46,2.82,13.15,2.64ZM75,74.79a7,7,0,0,0-1.15,0c-1.13.12-1.13,1-1.08,1.81s-.37,2,.87,2.09c2.62.29,5.26.4,7.9.57.87.06,1.24-.4,1.31-1.27.25-3.11.15-3.23-3-3.23-.4,0-.81,0-1.21,0a2.25,2.25,0,0,0-2.19,2.61c.06.37.18.73.27,1.1A13.54,13.54,0,0,1,75,74.79Zm54.73-16.91h-9.68l5,6.3ZM89.86,53c0,1.77-.06,3.42,0,5.07,0,.39.56.81,1,1.08.08.06.82-.46.83-.73.08-1.79,0-3.58,0-5.42Zm54.31,6.77.43-.46c-.43-.58-.76-1.51-1.3-1.65a13.9,13.9,0,0,0-3.35-.08l.22,2.19Zm-10.85-1.51c-2.86-.7-3.72-.27-4.33,2.06C131.88,60.66,132.28,60.48,133.32,58.22Zm4.33,0c-3-.47-3.49-.23-4.17,2C136.06,60.73,136.45,60.55,137.65,58.18Zm-21,0c1.2,2.35,2.3,2.82,4.33,1.93C119.54,57.79,119.31,57.68,116.6,58.13Zm5.73,4.24c-.44-1.41-1.06-1.61-3.3-1.08C119.78,62.41,120.4,62.61,122.33,62.37Zm-18.22,6,.06-.15H92.69v.15Zm23.53-5.83,3.42-.88-.1-.4C128.59,60.78,128,61,127.64,62.58ZM121.87,65v.22h6.49V65Z" style="fill: #fcfcfc"/>
    </g>
  </g>
</svg>
