<svg xmlns="http://www.w3.org/2000/svg" viewBox="0 0 600 600">
  <title>ghost_right_block_1</title>
  <g id="Layer_2" data-name="Layer 2">
    <g id="Layer_1-2" data-name="Layer 1">
      <g id="Right">
        <polygon points="361 236 409.12 292 393 292 361 236" style="fill: #7190a2;stroke: #010101;stroke-miterlimit: 10;stroke-width: 0.5px"/>
        <g>
          <rect x="415" y="291.52" width="128.05" height="17.49" style="fill: #394253"/>
          <polygon points="360.5 361.5 409.12 308 393 308 360.5 361.5" style="fill: #a6b8c2;stroke: #010101;stroke-miterlimit: 10;stroke-width: 0.5px"/>
          <polygon points="570.5 323 435.5 438.5 360.5 361.5 407.5 308 570.5 308.5 570.5 323" style="fill: #5d686c;stroke: #000202;stroke-miterlimit: 10;stroke-width: 0.5px"/>
          <polygon points="570.5 277 431.5 152.5 360.5 236.5 407.5 291.5 570.5 291.5 570.5 277" style="fill: #d4d8db;stroke: #000202;stroke-miterlimit: 10;stroke-width: 0.5px"/>
          <polygon points="407 308 446 308 445.82 291.5 407 291.5 407 308" style="fill: #394253"/>
          <rect x="396" y="291.5" width="11" height="16.5" style="fill: #324252"/>
          <path d="M569.85,276.87,554.5,291.5l16,.13V277.14A.38.38,0,0,0,569.85,276.87Z" style="fill: #808487;stroke: #000;stroke-miterlimit: 10;stroke-width: 0.5px"/>
          <path d="M569.85,323.13,554.5,308.5l16-.12v14.48A.38.38,0,0,1,569.85,323.13Z" style="fill: #808487;stroke: #000;stroke-miterlimit: 10;stroke-width: 0.5px"/>
        </g>
      </g>
    </g>
    <g id="Layer_3" data-name="Layer 3">
      <rect width="600" height="600" style="fill: none"/>
    </g>
  </g>
</svg>
