<svg xmlns="http://www.w3.org/2000/svg" viewBox="0 0 202 140">
  <title>grenade_launcher_block</title>
  <g id="Layer_2" data-name="Layer 2">
    <g id="Layer_1-2" data-name="Layer 1">
      <g id="Layer_2-2" data-name="Layer 2">
        <g id="Layer_2-2-2" data-name="Layer 2-2" style="opacity: 0.20000000298023224">
          <rect x="1" y="1" width="200" height="138" style="stroke: #fff;stroke-miterlimit: 10;stroke-width: 2px;opacity: 0.20000000298023224;isolation: isolate"/>
        </g>
      </g>
      <path d="M13.94,64.53v9l.2,6.4,1,11,1.1,2.4,1.4,3.1.8.5,5.2.4.1-.7H26v-3.9h6.2l1.4-2.7,1.7-2.5,2.7-2.3,17.9-12.6-.2-1.1H66l.7.6.4.8.3.8-.4,1.8-7.1,16.3-.4.6-.8.3h-.9l-.6,1.1-.6,1.8-.1,5.1.6.9,1,.7h90.1l.4-.4h.7l.5-1.1.3-7.2-.4-1.7-.6-1.1-.3-.2h-.5l-.6-.5-.6-.1v-.9l6.6-16.7.5-.8.9-.9.6-.4,20.4-.2,4-.6.1-1.1v-1H180l.1-.8H183l.7-.3.4-.5.9-1.2.5-.9.3-1.4.1-1.8-.1-1.7-.2-.9-.7-1.2-.6-.9-.4-.4-.4-.2h-35.8l-7-.3h-17.9l-2.8.9h-6.7l-.4.2h-1.2v1.1h-7.4l-.9-.8h-1.5l-.3.2h-2.9l-.4.1-.4.2-.5.3h-.2v1h-2.4v-1.6l-.5-.6v-1.5h-1.5v-.8l-1.5-1.1-.4-.2h-4.5l-3.7-.2-.2.2v.2h-.7l-.3-.4H79l-1.9-1.6.6-1.7v-.6l-.2-.6-.2-.5v-.6l3.4-9-.1-.5-.9-.4-5.4,12.8-1.8.3-1.6,2.9-1,.8.2.7-.4.9h-.2v-.7h-2.1v.6h-1.5v-.6h-2v.6h-1.5v-.6h-2.5l-.7,1.3h-2L48.34,57l-1.8-.2-2.8.2-3.1,1.1H26.24v-1.8H24l-.3-.3-.7-.3-.9-.2-4.7.3-.8.3-.6.6-.6,1.8-.4,1.7-.8,2.7Zm119.5,23.4h-6.7l.6-17.5,1.8-1v-1.2h11l-.1.7.3.5,1.3.4.4.9.4,1-7.1,17-.9.8h-1Zm-7.9,6.4.4-2.7H129v2.2l-.4.5Zm-53.3-3.1.6-1.4,2.7-5.9,3.2-.1.6-.4v-1.8h4.9l.3-.5v-.5h-.4L82.44,76V73h2.1v3.3l.3.7,4.2,1.5v8.4l-.4.9-.2.6v2.2l-.3.3h-1.5l-.5.4-.5.3h-.9l-.5.8h-11l-.7-.5Zm-37-19.7h9v.4l-.3.7-6.4,4.2-1,.3-.7-.4-.6-.7Z" style="fill: #fff"/>
    </g>
  </g>
</svg>
