<svg xmlns="http://www.w3.org/2000/svg" viewBox="0 0 265 265">
  <title>mods_icon</title>
  <g id="Layer_2" data-name="Layer 2">
    <g id="Layer_1-2" data-name="Layer 1">
      <rect width="265" height="265" style="fill: none"/>
      <polygon points="220.13 17.5 44.87 17.5 17.5 44.87 17.5 220.13 44.87 247.5 220.13 247.5 247.5 220.13 247.5 44.87 220.13 17.5" style="fill: none;stroke: #fff;stroke-miterlimit: 10;stroke-width: 5px"/>
      <path d="M235.5,110.54V50.89L215.11,30.5H50.89L30.5,50.89v59.65H37v43.92H30.5v60.65L50.89,235.5H215.11l20.39-20.39V154.46H228V110.54ZM49.5,40A7.5,7.5,0,1,1,42,47.5,7.5,7.5,0,0,1,49.5,40Zm0,185a7.5,7.5,0,1,1,7.5-7.5A7.5,7.5,0,0,1,49.5,225Zm124.85-31,2.91,8.7-26.89,10.86-3.86-8.08a73.52,73.52,0,0,1-28.71-.27l-3.55,7.11L87.56,201l2.72-7.7A73.35,73.35,0,0,1,71,173.34l-7.54,2.52L52.56,149l7.36-3.51a73.49,73.49,0,0,1,.44-27.75l-7.11-3.55,11.33-26.7,7.7,2.72A73.64,73.64,0,0,1,92.2,70.86l-2.52-7.53,26.89-10.86,3.51,7.35a73.72,73.72,0,0,1,26.67.24l4.1-8.22,26.7,11.33-3,8.45a73.68,73.68,0,0,1,19.51,19.57l8.69-2.9,10.87,26.88L205.55,119a73.55,73.55,0,0,1-.07,27.63l8.22,4.1-11.33,26.7-8.45-3A73.64,73.64,0,0,1,174.35,194Zm43.15,31a7.5,7.5,0,1,1,7.5-7.5A7.5,7.5,0,0,1,217.5,225Zm0-170a7.5,7.5,0,1,1,7.5-7.5A7.5,7.5,0,0,1,217.5,55Z" style="fill: #fff;stroke: #fff;stroke-miterlimit: 10;stroke-width: 6px"/>
      <circle cx="132.5" cy="132.5" r="37.5" style="fill: #fff;stroke: #fff;stroke-miterlimit: 10;stroke-width: 6px"/>
    </g>
  </g>
</svg>
