<svg xmlns="http://www.w3.org/2000/svg" viewBox="0 0 202 140">
  <title>pulse_rifle_block_1</title>
  <g id="Layer_2" data-name="Layer 2">
    <g id="Layer_2-2" data-name="Layer 2" style="opacity: 0.2">
      <rect x="1" y="1" width="200" height="138" style="fill: #fcfcfc;stroke: #fff;stroke-miterlimit: 10;stroke-width: 2px;opacity: 0.2"/>
    </g>
    <g id="Layer_6" data-name="Layer 6">
      <path d="M179.68,68.16a1.12,1.12,0,0,1-.92.36c-3.22,0-6.44,0-9.67,0-1.29,0-2.57-.07-3.86-.11l-3.37-.1-4.35-.11a.84.84,0,0,0-.63.23A.88.88,0,0,1,155.4,68a.45.45,0,0,0-.48-.35c-.33,0-.66,0-1,0a1,1,0,0,0-.52.22,1.46,1.46,0,0,1-1.86,0c-.37-.34-.55-.35-.91,0a.91.91,0,0,1-.72.3c-1.15,0-2.29,0-3.44,0-.52,0-.51,0-.72-.52a.46.46,0,0,0-.31-.22c-.2,0-.28.12-.29.31s0,.58,0,.87c0,.53-.23.76-.75.77h-1.75c-.43,0-.55.12-.56.54,0,.16,0,.33,0,.49,0,.41,0,.74.56.81a.58.58,0,0,1,.43.62c0,.36,0,.73,0,1.09s.14.52.51.55c1.12.08,1.12.08,1.13,1.22,0,.47,0,.95,0,1.42a.64.64,0,0,1-.67.68h-.6a.43.43,0,0,0-.47.47c0,.24,0,.47,0,.71a.63.63,0,0,1-.68.67h-3.06a.57.57,0,0,1-.31-.05,2.39,2.39,0,0,0-1.52-.27c-.53,0-1.06,0-1.58,0a8.12,8.12,0,0,0-3.57.71c-1.49.55-3,1-4.55,1.49-.55.18-1.1.34-1.64.53a4.57,4.57,0,0,1-1.54.24q-6.44,0-12.89,0a1,1,0,0,1-.9-.38,1.76,1.76,0,0,0-.39-.38,1.16,1.16,0,0,0-.52-.22,1,1,0,0,1-1.08-1.12c0-.71-.26-1-1-1a5,5,0,0,0-1,0c-.92.2-1.33-.49-1.84-1a.52.52,0,0,1-.08-.25c-.09-.43-.22-.54-.61-.5s-.44.18-.44.61c0,.93,0,1.86,0,2.79a.62.62,0,0,1-1,.59.72.72,0,0,1-.27-.48c0-.32,0-.66,0-1a2.82,2.82,0,0,0-.18-.57.51.51,0,0,0-.43.57c0,.31,0,.62,0,.93a.85.85,0,0,1-.62.91C98.56,81.95,95.79,83,93,84.14c-1.47.59-2.92,1.22-4.37,1.85s-2.83,1.18-4.2,1.85c-1.57.77-3.09,1.64-4.63,2.47a1.94,1.94,0,0,1-1.09.27c-.38,0-.77,0-1.15,0a4.21,4.21,0,0,0-2.74.63,1.18,1.18,0,0,1-.62.14h-7.7a1,1,0,0,1-1-1c0-.16,0-.33,0-.49a1,1,0,0,0-1.1-1.09,1,1,0,0,1-.77-.15,1,1,0,0,1-.32-1c.18-1.12.39-2.23.58-3.34a15.17,15.17,0,0,1,1.3-3.59c.66-1.45,1.5-2.83,2.28-4.23q.71-1.28,1.46-2.54a2.58,2.58,0,0,0,.39-1.66c0-.3.05-.69-.1-.89a3.51,3.51,0,0,0-1.11-.93,25.73,25.73,0,0,0-4.65-1.54,1.35,1.35,0,0,0-1.61.69,3,3,0,0,0-.59,1.88,1.11,1.11,0,0,1-.2.6c-.42.78-.83,1.56-1.3,2.31a3.41,3.41,0,0,0-.35,1.94.9.9,0,0,1-.56.84,6.94,6.94,0,0,1-.91.13,1.73,1.73,0,0,0-1,.36,3.73,3.73,0,0,0,.57.14,1.47,1.47,0,0,1,1.37,1,16.8,16.8,0,0,1,.44,1.83c.18,1,.3,1.92.46,2.87.2,1.19.42,2.37.64,3.55s.47,2.36.63,3.55a7,7,0,0,1,0,2,1.18,1.18,0,0,1-.72.7,8.27,8.27,0,0,1-1.59.25c-.87.11-1.75.21-2.62.32s-2,.27-3,.45c-1.5.27-3,.57-4.49.85-.3.06-.61.08-.91.13-1.25.23-1.87-.57-2.44-1.47a5.42,5.42,0,0,1-.52-2c-.27-1.32-.5-2.64-.74-4s-.51-2.5-.66-3.76a5.1,5.1,0,0,1,.51-3.26,2.1,2.1,0,0,0,.19-.5.41.41,0,0,0-.42-.59c-.53,0-1.06,0-1.58,0a.77.77,0,0,1-.81-.5c-.28-.62-.59-1.23-.83-1.87-.18-.48-.6-.71-.91-1.06-.06-.07-.24-.07-.36-.07h-9a.71.71,0,0,0-.57.25,1,1,0,0,1-.78.31c-.42,0-.84,0-1.26,0s-.76.05-1-.33c-.14-.19-.34-.12-.53,0-.54.38-.84.22-.95-.41s-.32-1.47-.46-2.22c-.22-1.18-.38-2.38-.62-3.56A39.82,39.82,0,0,1,23.67,63c0-.4,0-.8,0-1.2A12.93,12.93,0,0,1,24,58.74c.21-1.22.48-2.43.74-3.65s.57-2.53.83-3.8a1.76,1.76,0,0,1,.56-1.18c.07-.05.15-.18.21-.16.58.12.86-.56,1.43-.49a12.44,12.44,0,0,0,1.58,0,1,1,0,0,1,.71.2.73.73,0,0,0,.51.11.85.85,0,0,1,1,.7c.18.55.34,1.1.53,1.65a1.85,1.85,0,0,0,1.1,1.13,3.64,3.64,0,0,0,1.26.24c1.13,0,2.26,0,3.39,0a1.55,1.55,0,0,1,.78.15,2.12,2.12,0,0,0,.85.08c1,0,1,.07,1.06,1a1.87,1.87,0,0,0,0,.21.7.7,0,0,0,.82-.63c.08-.55.13-.59.7-.59h6c.71,0,.77-.06.77-.79,0-.22,0-.44,0-.66a.58.58,0,0,1,.58-.6c1.33,0,2.66,0,4,0a.75.75,0,0,1,.71.8c0,.27,0,.55,0,.82,0,.53.1.63.64.64h5l6.66,0a1.77,1.77,0,0,0,1.48-.61,1.29,1.29,0,0,1,1.77-.22,3,3,0,0,0,1,.12,1,1,0,0,0,1-.37.87.87,0,0,0,.23-.58c0-.71,0-1.42,0-2.13a.76.76,0,0,1,.8-.82c.44,0,.87,0,1.31,0a1.36,1.36,0,0,1,1.43,1.13c.21.75.56,1.07,1.39.86,0-.42,0-.87,0-1.31,0-.61.19-.81.81-.82h.93c.69,0,.75-.06.78-.74a2.55,2.55,0,0,1,0-.32s0,0,.14-.11l.13.62h1.5c.59,0,.62,0,.79.6a1.11,1.11,0,0,1,.92.93,12.33,12.33,0,0,0,.39,1.4.83.83,0,0,0,.69.62c.84.12,1.67.28,2.51.41l3.32.5,3.27.5c.79.12,1.57.29,2.36.36.63.06,1.26,0,1.93,0l0-.24c.09-.41.17-.48.64-.48h4.37c1,0,2.08,0,3.11,0l7.58.11c1.2,0,2.39.07,3.59.1a.86.86,0,0,0,.76-.21.6.6,0,0,1,.4-.1h3.82a.74.74,0,0,1,.46.11,1.49,1.49,0,0,0,1.11.32l7.47.11,8.72.12,4.74.08a.78.78,0,0,1,.85.89c0,.64,0,1.27,0,1.91a.81.81,0,0,0,.11.4.27.27,0,0,0,.46.06l.08-.08a1.79,1.79,0,0,1,1.81-.7c.82.05,1.64,0,2.46,0a.77.77,0,0,0,.84-.83c0-1.31,0-2.62,0-3.93a.81.81,0,0,0-.27-.67,1.46,1.46,0,0,1-.23-1.35.72.72,0,0,1,.49-.27c.6,0,1.2,0,1.8,0a.46.46,0,0,1,.52.5c0,.18,0,.36,0,.55,0,.59-.05.65-.63.71-.31,0-.48.19-.44.5a2.2,2.2,0,0,0,.2.78,6.65,6.65,0,0,1,.55,3.6.64.64,0,0,1-.7.59c-.55,0-.55,0-.83.32.1.09.19.24.3.27.42.09.47.38.47.73,0,.75,0,1.49,0,2.24,0,.52-.1.65-.6.81a.45.45,0,0,0-.38.45c0,.78,0,1.57,0,2.35a1.38,1.38,0,0,0,.15.38,2.76,2.76,0,0,0,.24-.29.58.58,0,0,1,.59-.31,6.21,6.21,0,0,0,.82,0,.77.77,0,0,1,.72.29.94.94,0,0,0,.87.36c.22,0,.44,0,.66,0a.45.45,0,0,0,.51-.44c.07-.44.16-.51.6-.51a1.15,1.15,0,0,1,1,.29.72.72,0,0,0,.45.13c2.61.19,5.23.11,7.85.13s5.06,0,7.57.12c2,.11,4,0,5.94.07a1.27,1.27,0,0,1,.75.35ZM82.52,77.79a.89.89,0,0,1-1.21-.34,2.34,2.34,0,0,1-.62-1.83.82.82,0,0,0,0-.16.77.77,0,0,0-.83-.84H79.2a.76.76,0,0,0-.77.79c0,.6,0,1.2,0,1.8a.63.63,0,0,1-.67.68c-.42,0-.84,0-1.26,0a1.85,1.85,0,0,0-1.66,1l-.27.47c-.44.76-.92,1.51-1.3,2.3s-.72,1.68-1.06,2.53a5.61,5.61,0,0,0-.43,1.21,6,6,0,0,0,.66,3.51c.24.5.75.85,1.1.7a6.73,6.73,0,0,0,1.84-1,25.79,25.79,0,0,0,2-2.3,2.53,2.53,0,0,1,2.06-1.19,4.16,4.16,0,0,0,2.26-.65c.81-.47,1.63-.92,2.46-1.36,1.29-.69,2.59-1.35,3.88-2s2.2-1.46,2-3a3.74,3.74,0,0,0-.9-2.15,5.11,5.11,0,0,0-2.12-1.15,25.29,25.29,0,0,0-3.42-.9,1.29,1.29,0,0,0-1.33.37,1.62,1.62,0,0,0-.6,1.47,1.4,1.4,0,0,1,0,.44,1.14,1.14,0,0,0,.46,1.14A2.33,2.33,0,0,1,82.52,77.79Zm19.84-4.1h.19a2,2,0,0,0,.09-.39c0-.33,0-.66,0-1,0-.57.11-.68.66-.69a6.27,6.27,0,0,1,.82,0,2.6,2.6,0,0,1,.54.18c.11,0,.28.14.33.1a.59.59,0,0,0,.16-.36c.06-.62.23-.8.84-.8,1.75,0,3.5,0,5.24,0a1,1,0,0,1,.8.35c.37.4.71.92,1.18,1.11a6.18,6.18,0,0,0,1.67.08,3.86,3.86,0,0,0,2.53-.61,2,2,0,0,1,1.14-.27c1.15,0,2.29,0,3.44,0h5.79c.55,0,.64-.09.65-.63s0-.88,0-1.31c0-.62-.15-.76-.75-.76q-9.39,0-18.79,0a.87.87,0,0,0-.81.33.87.87,0,0,1-.81.34c-1.47,0-2.95,0-4.42,0-.47,0-.6.12-.6.57q0,1.67,0,3.33A1.88,1.88,0,0,0,102.36,73.7ZM102,69.5c-2.58-.51-4.9.26-7.17,1.37.06.08.09.13.1.13a3.23,3.23,0,0,1,1.51.22.41.41,0,0,0,.16,0A6.21,6.21,0,0,0,97.68,71a5,5,0,0,1,3-.14,3.06,3.06,0,0,0,1.07-.09c.12,0,.31-.24.29-.28C101.86,70.14,102.2,69.86,102,69.5ZM50.52,56.23c-.11-.42-.31-.52-.6-.53-.69,0-1.38-.08-2.06-.1-1.29,0-2.58,0-3.87,0a21,21,0,0,1-2.15-.21c-.26,0-.38,0-.44.27-.11.41,0,.59.49.61.87,0,1.74.08,2.61.09q2.7,0,5.39,0A3,3,0,0,0,50.52,56.23ZM117.19,54c0-.06-.06-.1-.08-.11a2.12,2.12,0,0,0-.37-.05c-2.63,0-5.27,0-7.9-.19-1.88-.13-3.78-.1-5.67-.13-.58,0-1.16,0-1.75,0-1.14,0-2.29.08-3.43.12-.07,0-.14.07-.25.13.33.27.67.15,1,.14,1.42,0,2.84-.07,4.25,0s3,.11,4.57.14c.83,0,1.67,0,2.5,0s1.93,0,2.89.07,2,.08,3,.11A2.25,2.25,0,0,0,117.19,54Zm22.88.4v-.16a3.71,3.71,0,0,0-.44-.07c-.89,0-1.78-.07-2.67-.09L129,54l-5.34-.09a3.61,3.61,0,0,0-.69.12v.15a2.14,2.14,0,0,0,.45.11c1.8,0,3.59.08,5.39.1.72,0,1.44-.1,2.16-.09,1.2,0,2.39.1,3.59.15.65,0,1.29.07,1.94.08s1.52,0,2.28,0A4.25,4.25,0,0,0,140.07,54.4ZM56.34,55.69h0c-.51,0-1,0-1.53,0-.26,0-.51.06-.54.4s.08.55.52.57l3.36.15a.19.19,0,0,0,.11,0,2,2,0,0,1,1.21-.13c.4,0,.49-.09.49-.41s-.11-.43-.47-.45Zm118.53,9.76h-.44c-1.11-.06-.95.21-.95,1a.42.42,0,0,0,.48.46c.56,0,1.13,0,1.69,0,.38,0,.5-.14.52-.54,0-.15,0-.29,0-.44,0-.38-.14-.5-.54-.51Zm-29.3-1.55a1.48,1.48,0,0,0,.22-.49c0-.69,0-1.38,0-2.07a.72.72,0,0,0-1.1-.58c-.28.18-.18.47-.1.74.14.48.23,1,.41,1.44S145.09,63.68,145.56,63.9ZM52.11,55.68v0h-.65c-.24,0-.44.08-.45.36s.19.37.42.39l1.84.13a1.7,1.7,0,0,0,.38,0c.26,0,.29-.24.28-.45s-.11-.29-.31-.3ZM177.51,66.23s0,.07,0,.11c0,.45.13.59.51.6s.53-.13.54-.62c0-.11,0-.22,0-.33a.42.42,0,0,0-.45-.44C177.67,65.52,177.52,65.69,177.51,66.23ZM63.2,56c0,.32,0,.56.29.62a3.53,3.53,0,0,0,1,0c.24,0,.28-.25.28-.45s-.17-.3-.36-.29Zm97.86,8.33,0,.19c.43-.06.8.21,1.27.09a6.87,6.87,0,0,1,1.26-.1c-.72-.56-1.52-.35-2.28-.36C161.25,64.14,161.15,64.26,161.06,64.33ZM46.62,81.13a8.89,8.89,0,0,0-1,.07c-.12,0-.32.22-.31.3a.57.57,0,0,0,.31.38,1.62,1.62,0,0,0,.64,0C46.78,81.85,46.82,81.78,46.62,81.13Zm14.89-24.4c.35,0,.51-.09.5-.34s-.25-.36-.5-.34a2.24,2.24,0,0,0-.64.12.48.48,0,0,0-.22.31s.16.17.26.2A4,4,0,0,0,61.51,56.73Zm5.17-1.35a1.31,1.31,0,0,0-1.57-.45C65.6,55.48,65.86,55.56,66.68,55.38ZM91.54,74.11c.09-.08.26-.16.27-.24a.41.41,0,0,0-.21-.31,2.54,2.54,0,0,0-.73-.18c-.11,0-.24.1-.35.16.07.11.1.29.2.33A6.23,6.23,0,0,0,91.54,74.11Zm49.13-19.93,0,.25a11.42,11.42,0,0,0,2.89-.15Zm16,9.73h-.59c.05.42.28.44.59.4Z" style="fill: #fff"/>
    </g>
  </g>
</svg>
