<svg xmlns="http://www.w3.org/2000/svg" viewBox="0 0 202 140">
  <title>sidearm_block</title>
  <g id="Layer_2" data-name="Layer 2">
    <g id="Layer_2-2" data-name="Layer 2" style="opacity: 0.2">
      <rect x="1" y="1" width="200" height="138" style="fill: #fcfcfc;stroke: #fff;stroke-miterlimit: 10;stroke-width: 2px;opacity: 0.2"/>
    </g>
    <g id="Layer_5" data-name="Layer 5">
      <path d="M48.83,49.13c-1.75.15-3.59,0-5.21.52a3.62,3.62,0,0,1-4.22-.93,10,10,0,0,0-2.09-1.27c0-1.35-.45-3,.15-4.1.42-.74,2.28-.78,3.52-.93,3.7-.47,7.7-1.94,11.06-1,10.79,2.9,21.64.86,32.43,1.4,6.57.33,13.17,0,19.75.26,1.71.07,3.37,1.18,5.35,1.92l1.59-2.12a26.68,26.68,0,0,0,4.11.38c3.73-.23,7.3.82,10.94,1.14,4.21.37,8.5-.11,12.75-.26,8.28-.29,16.56-.79,24.84-.78a11.13,11.13,0,0,1,6.75,2.47c1.2,1,1.77,3.91,1.28,5.57-.92,3.11-.42,6.09-.39,9.12,0,2.1-.76,2.75-2.77,2.72q-10.79-.15-21.59-.08A8,8,0,0,0,143,64c-2.7,1.74-5.56,1.85-8.61,1.91-4.6.09-9.2.54-14.22.86.31,1.75.45,2.83.7,3.87a28.32,28.32,0,0,1,.94,3.21c.52,4.39,0,4.93-4.26,5.86a33.19,33.19,0,0,0-5.33,1.75c-6.73,2.73-13.6,4.48-21,3.84-3.27-.28-6.62.19-9.89-.11a61.13,61.13,0,0,1-10.55-1.84c-3.83-1.05-5.14-.71-6.49,3.19a62.1,62.1,0,0,0-1.78,7c-.93,4.28-1.76,8.57-2.68,12.85-.35,1.65-1.21,3.22-3.08,3-5.32-.63-10.63-1.44-15.92-2.35a3.52,3.52,0,0,1-2.93-4c.17-3.06.57-6.1.9-9.15a42.54,42.54,0,0,0,.65-5.79c-.15-4.7,1.64-8.62,4.37-12.23,2.84-3.76,5.88-7.39,8.51-11.3a7.92,7.92,0,0,0,.8-4.86c-.07-.7-1.59-1.59-2.57-1.8-2.61-.54-5-4-3.94-6.38.36-.79,1.47-1.25,2.23-1.85ZM79.64,82.39c6.51-.32,8.8-3.8,6.48-9.83-.85-2.2-3.07-3.12-5-1.62-2.54,2-4.63,4.48-4.8,8C76.22,81.18,77.55,82.49,79.64,82.39ZM140.11,53.5v-.09h-19v.09Zm-32.39-.13,0,.09h10.07v-.09Z" style="fill: #fff"/>
    </g>
  </g>
</svg>
