<svg xmlns="http://www.w3.org/2000/svg" viewBox="0 0 202 140">
  <title>sword_block</title>
  <g id="Layer_2" data-name="Layer 2">
    <g id="Layer_2-2" data-name="Layer 2" style="opacity: 0.2">
      <rect x="1" y="1" width="200" height="138" style="fill: #fcfcfc;stroke: #fff;stroke-miterlimit: 10;stroke-width: 2px;opacity: 0.2"/>
    </g>
    <g id="Layer_3" data-name="Layer 3">
      <path d="M116.66,80.1l-.57-.74c-.62-.28-1.23-.09-2,.67-1.08.29-1.64-.36-2.09-1.16l-1.26.18,0,.92c-1.54.35-3.14-.24-4.64.5l-.55-1.13.53-1.53-1.1-.33-1.15-1.75a3.31,3.31,0,0,0-3.07.61,2.35,2.35,0,0,1-2.06.58,2.3,2.3,0,0,0-2.75,1.31c-.13.23-.29.44-.43.66-.16-.09-.27-.12-.3-.18a2.62,2.62,0,0,0-4.45-.53,4,4,0,0,0-.34.44,31.84,31.84,0,0,1-1.73,2.78,2.85,2.85,0,0,0-.3.88,3.32,3.32,0,0,1-.65-.29c-1.31-1-2.87-1-4.38-1-1.26-.08-2.52,0-3.78,0a3.14,3.14,0,0,0-1.87.38,2.45,2.45,0,0,1-1.35.15,8.92,8.92,0,0,0-2.56-.19c-1.57.43-3.29-.23-4.76.73-.12.08-.36,0-.67,0l-1-3a5.77,5.77,0,0,1-1-.14,4,4,0,0,1-.78-.42h-4.7L59.3,73.24a2.94,2.94,0,0,0-2.88-.51l-1.9-1.89H44c-1.4,0-2.8,0-4.2,0-2.55.11-5.1.46-7.64.36-1.27,0-2.64.22-3.92-.55a1.87,1.87,0,0,0-2.72.4l-.48-.21.29-2.06a3.17,3.17,0,0,1-2.57.09l1-2.44,1-.34.25.41a2.89,2.89,0,0,1,2.88-.23c.24.09.51.13.76.21a6.49,6.49,0,0,0,2.62.09c.59-.07,1.26.17,2,.13,1.2-.08,2.4-.23,3.62-.2,3.14.08,6.28.08,9.42.11,1.57,0,3.15,0,4.72,0,1.05,0,2.1-.21,3.1-.32l.64,1,.3-1.42c.6-1,1.69-.83,2.59-1.11,1.22.68,1.26.68,2.5-.08.15-.57.32-1.14.43-1.73s.12-1.07.19-1.79A12.75,12.75,0,0,1,62.11,61c.56,0,1.11.06,1.67.07,1.47,0,1.51.05,2.16,1.37l.71-.63.91-.79c.32-.27.8-.46.94-.8a6.11,6.11,0,0,1,2.6-2.53l1.35.12c.63.64,1,1.58,2.07,1.73.23,0,.44.33.62.54a8.84,8.84,0,0,0,4.16,2.66c.3.09.58.28.88.38a4.68,4.68,0,0,0,1.58.28l1.25.94,1.34-.16,0,.13c.75.17,1.5.36,2.26.52,2.9.62,5.81,1.23,8.7,1.87a13.51,13.51,0,0,1,2.35.72,5.13,5.13,0,0,0,3.64-.19,6.54,6.54,0,0,1,4.75.24c.37.18.74.38,1.1.57.38,1.38.58,1.51,2,1.38l.89-.06,1.47-1.64,1.92.71c-.29.58,1.36,2.31,1.75,2.48s.63.67,1.1,1.23a16.69,16.69,0,0,1,.36-1.94c.08-.26.37-.6.6-.63a.88.88,0,0,1,.71.48c.28.88.9,1.22,2,1.43l-1-1.35,3.24-2.61,2.95,1.44a6,6,0,0,0,.9-.49,2.21,2.21,0,0,1,2.93-.19,1.08,1.08,0,0,0,1.69-.17c.17-.21.58-.21.86-.34s.56-.29.9-.47c.52,1.22,1.83.87,2.72,1.39.14.08.61-.3.87-.53a9.69,9.69,0,0,0,.82-.92c.78.27,1.49.45,2.14.75s1.05,1,2,.41c.43-1,1.38-1.08,2.48-.89,2.28.39,4.57.72,6.86,1.08a.69.69,0,0,0,.28,0c1.51-.44,3,.08,4.51-.09.83-.09,1.72.26,2.55-.25.25-.16.74,0,1.09.09a7.47,7.47,0,0,0,3.68-.2c.68-.11,1.38-.15,2.24-.24a4.05,4.05,0,0,0,2.66.25,15.17,15.17,0,0,1,3.61.06c1,.07,2.07.58,2.94.18L178,69.54c0,.14,0,.27,0,.31-1.3,1-2.57,2.09-3.93,3s-2.74,1.75-4.13,2.61a3,3,0,0,1-.76.35c-2.27.64-4.29,1.88-6.49,2.68a22,22,0,0,1-3,.71,15.51,15.51,0,0,1-2.19.38c-1.06.07-2.12,0-3.18,0-.41,0-.83-.11-1.24-.09-1.06.06-2.12.23-3.19.22a7.46,7.46,0,0,1-2.23-.46,20.84,20.84,0,0,1-6.36.47,3.24,3.24,0,0,1-1.21-.27,4.13,4.13,0,0,0-2.73-.09,11.26,11.26,0,0,1-2.46.35c-2.14,0-4.27-.11-6.41-.23a29.9,29.9,0,0,0-7.36.2,12.42,12.42,0,0,1-1.4,0C118.85,79.88,117.89,80,116.66,80.1Zm32.13-10.36v.2c.36,0,.71.05,1.07.05H157a2.3,2.3,0,0,1,1,0c1.21.63,2.41.24,3.62.06a22.84,22.84,0,0,1,2.32-.12l.65.86a2.5,2.5,0,0,0,.52-.23c.09-.07.13-.22.2-.37a2.12,2.12,0,0,0-1.82-.52H148.79Zm22.94,2.37-.08.83c-.66.22-1.41.22-1.48,1.07.23.48.58.46.93.23.91-.59,1.81-1.2,2.77-1.84Zm-48.43-2.68c1,.71,1.85,1.66,3.21,1.34-1.31-.47-2.14-1.83-3.61-2a1.67,1.67,0,0,0-.22,1.77Zm36.23,7.85c-1.85.81-1.85.81-1.84,1.33l2.68-.7c.12,0,.23-.09.5-.2Z" style="fill: #fff"/>
    </g>
  </g>
</svg>
