<svg xmlns="http://www.w3.org/2000/svg" viewBox="0 0 202 140">
  <title>titan_icon_block</title>
  <g id="Layer_2" data-name="Layer 2">
    <g id="Layer_2-2" data-name="Layer 2" style="opacity: 0.2">
      <rect x="1" y="1" width="200" height="138" style="fill: #fcfcfc;stroke: #fff;stroke-miterlimit: 10;stroke-width: 2px;opacity: 0.2"/>
    </g>
    <g id="Layer_4" data-name="Layer 4">
      <g>
        <path d="M150.52,99.38l-11.05,6.43c-11.83,6.85-23.64,13.72-35.51,20.49-.93.53-2.57.88-3.37.42C85,117.84,69.49,108.81,53.69,99.65c.73-.52,1.25-1,1.84-1.3Q77.75,85.46,100,72.56c1.34-.78,2.38-1.16,3.95-.24,14.95,8.73,30,17.36,44.94,26C149.32,98.6,149.75,98.9,150.52,99.38Z" style="fill: #fcfcfc;stroke: #fff;stroke-miterlimit: 10;stroke-width: 0.25px"/>
        <path d="M53.54,38.18C57.28,36,61,33.87,64.66,31.75q17.41-10,34.82-20c1.23-.71,2.22-1.19,3.71-.32q22.92,13.29,45.92,26.45a11.37,11.37,0,0,1,1.07.85L146.26,41q-21.19,12.18-42.41,24.32a3.81,3.81,0,0,1-3.13.29c-15.58-8.88-31.1-17.88-46.63-26.85A3.78,3.78,0,0,1,53.54,38.18Z" style="fill: #fcfcfc;stroke: #fff;stroke-miterlimit: 10;stroke-width: 0.25px"/>
        <path d="M97.95,68.84,51,95.79V41.74Z" style="fill: #fcfcfc;stroke: #fff;stroke-miterlimit: 10;stroke-width: 0.25px"/>
        <path d="M106.14,68.94,152,42.37v53Z" style="fill: #fcfcfc;stroke: #fff;stroke-miterlimit: 10;stroke-width: 0.25px"/>
      </g>
    </g>
  </g>
</svg>
